<svg width="157" height="301" viewBox="0 0 157 301" fill="none" xmlns="http://www.w3.org/2000/svg">
<path d="M278.254 196.699L278.065 196.92C261.06 180.638 237.965 160.649 212.225 154.753C199.364 151.807 185.845 152.382 172.093 158.695C158.337 165.01 144.324 177.076 130.492 197.155C95.2923 248.251 97.7377 294.602 96.8931 328.687C96.4713 345.707 95.2304 359.75 87.9687 369.731C80.6919 379.733 67.4349 385.581 43.189 386.417L43.1886 386.122L43.1891 385.828C67.3861 384.993 80.4213 379.158 87.5364 369.379C94.6662 359.579 95.9174 345.74 96.3399 328.691C97.1838 294.636 94.7282 248.09 130.05 196.816C143.927 176.673 158.015 164.522 171.888 158.154C185.763 151.784 199.401 151.21 212.357 154.178C238.251 160.109 261.438 180.197 278.441 196.476L278.254 196.699ZM415.167 253.597L414.979 253.818C397.973 237.536 374.878 217.546 349.138 211.651C341.573 209.918 333.782 209.404 325.848 210.559C325.886 210.567 325.924 210.576 325.962 210.585C351.856 216.516 375.043 236.604 392.046 252.884L391.858 253.105L391.67 253.328C374.664 237.046 351.569 217.056 325.828 211.16C325.299 211.039 324.768 210.925 324.237 210.816C321.631 211.269 319.011 211.906 316.379 212.74C337.125 221.199 355.59 237.41 369.759 250.977L369.571 251.199L369.382 251.42C355.057 237.705 336.411 221.359 315.503 213.022C313.345 213.742 311.179 214.595 309.007 215.592C308.93 215.628 308.853 215.664 308.776 215.7C324.108 224.567 337.78 236.764 348.837 247.351L348.65 247.573L348.461 247.794C337.312 237.119 323.545 224.85 308.131 216.004C306.403 216.828 304.67 217.741 302.935 218.752C312.926 226.054 321.963 234.266 329.714 241.687L329.525 241.91L329.337 242.131C321.526 234.653 312.431 226.393 302.385 219.075C301.285 219.729 300.184 220.422 299.081 221.154C304.021 225.397 308.631 229.68 312.859 233.728L312.672 233.95L312.483 234.172C308.214 230.085 303.561 225.762 298.579 221.489C298.209 221.739 297.838 221.994 297.468 222.253C297.87 222.635 298.269 223.015 298.664 223.394L298.476 223.616L298.287 223.837C297.856 223.425 297.422 223.01 296.983 222.594C287.138 229.581 277.226 239.797 267.405 254.053C232.206 305.149 234.652 351.5 233.807 385.585C233.385 402.605 232.144 416.647 224.883 426.628C217.606 436.63 204.349 442.478 180.103 443.314L180.103 442.725C204.3 441.89 217.335 436.056 224.45 426.277C231.58 416.477 232.832 402.638 233.255 385.589C234.098 351.534 231.641 304.988 266.964 253.714C276.774 239.472 286.692 229.226 296.563 222.194C293.8 219.573 290.885 216.875 287.835 214.169C287.123 214.466 286.41 214.774 285.697 215.102C271.942 221.416 257.928 233.484 244.096 253.563C208.897 304.659 211.343 351.009 210.498 385.094C210.076 402.114 208.836 416.157 201.574 426.138C194.297 436.14 181.04 441.988 156.794 442.824L156.794 442.529L156.794 442.235C180.991 441.4 194.026 435.566 201.141 425.787C208.271 415.987 209.522 402.147 209.945 385.098C210.789 351.043 208.333 304.497 243.655 253.223C257.532 233.081 271.62 220.93 285.492 214.561C286.113 214.277 286.734 214.006 287.353 213.744C285.214 211.855 283.01 209.961 280.743 208.093C275.029 208.875 269.241 210.518 263.41 213.195C249.655 219.509 235.641 231.576 221.809 251.655C186.609 302.751 189.055 349.103 188.21 383.187C187.789 400.208 186.548 414.25 179.287 424.231C172.01 434.233 158.753 440.081 134.507 440.918L134.507 440.622L134.507 440.328C158.704 439.493 171.738 433.658 178.853 423.879C185.983 414.079 187.236 400.24 187.658 383.191C188.502 349.136 186.045 302.59 221.367 251.316C235.243 231.173 249.333 219.023 263.205 212.655C268.895 210.043 274.544 208.406 280.123 207.587C279.579 207.142 279.033 206.698 278.482 206.256C277.5 205.618 276.511 204.992 275.514 204.379C264.816 203.082 253.731 204.408 242.488 209.569C228.733 215.884 214.72 227.95 200.888 248.029C165.688 299.125 168.134 345.476 167.289 379.561C166.867 396.582 165.626 410.624 158.364 420.605C151.088 430.606 137.831 436.454 113.586 437.291L113.586 436.701C137.782 435.866 150.817 430.032 157.932 420.253C165.062 410.453 166.314 396.614 166.736 379.565C167.58 345.51 165.124 298.964 200.446 247.69C214.322 227.547 228.411 215.396 242.284 209.028C253.18 204.026 263.929 202.598 274.317 203.653C273.761 203.319 273.202 202.99 272.641 202.665C269.635 201.583 266.585 200.672 263.496 199.964C250.635 197.018 237.118 197.593 223.365 203.906C209.61 210.221 195.596 222.287 181.764 242.366C146.564 293.462 149.009 339.813 148.165 373.898C147.743 390.918 146.503 404.96 139.241 414.942C131.964 424.943 118.707 430.791 94.4614 431.628L94.4615 431.039C118.658 430.204 131.693 424.37 138.808 414.59C145.938 404.79 147.19 390.951 147.613 373.902C148.457 339.847 146 293.301 181.322 242.027C195.198 221.884 209.287 209.734 223.159 203.365C237.035 196.995 250.673 196.421 263.629 199.388C265.722 199.868 267.798 200.441 269.854 201.096C262.444 197.054 254.671 193.844 246.642 192.005C233.781 189.059 220.263 189.633 206.51 195.946C192.755 202.261 178.742 214.328 164.909 234.407C129.71 285.503 132.155 331.854 131.31 365.939C130.889 382.959 129.649 397.001 122.387 406.983C115.11 416.984 101.853 422.832 77.6073 423.669L77.6068 423.373L77.6073 423.08C101.804 422.245 114.839 416.41 121.954 406.631C129.084 396.831 130.336 382.992 130.758 365.942C131.602 331.887 129.146 285.342 164.468 234.068C178.344 213.925 192.433 201.774 206.305 195.406C220.181 189.036 233.819 188.462 246.775 191.429C255.859 193.51 264.611 197.333 272.879 202.123C273.057 202.188 273.235 202.253 273.414 202.319C261.056 193.043 247.185 185.046 232.446 181.67C219.585 178.724 206.068 179.299 192.315 185.612C178.56 191.927 164.546 203.993 150.714 224.072C115.514 275.168 117.959 321.519 117.115 355.604C116.693 372.624 115.453 386.666 108.191 396.648C100.915 406.649 87.6576 412.497 63.4116 413.334L63.4117 412.745C87.6086 411.91 100.643 406.076 107.758 396.296C114.888 386.496 116.14 372.657 116.563 355.608C117.407 321.553 114.95 275.007 150.272 223.733C164.148 203.59 178.237 191.44 192.11 185.071C205.985 178.701 219.623 178.127 232.579 181.094C248.052 184.638 262.559 193.238 275.357 203.059C276.222 203.4 277.083 203.754 277.939 204.121C278.463 204.203 278.985 204.293 279.506 204.387C263.454 189.762 243.232 174.206 221.043 169.123C208.183 166.177 194.664 166.751 180.912 173.064C167.156 179.379 153.143 191.446 139.311 211.525C104.111 262.621 106.557 308.972 105.712 343.057C105.29 360.077 104.05 374.119 96.7884 384.101C89.5116 394.102 76.2546 399.95 52.0087 400.787L52.0082 400.491L52.0087 400.198C76.2056 399.363 89.2402 393.528 96.3552 383.749C103.485 373.949 104.736 360.11 105.159 343.061C106.003 309.006 103.547 262.46 138.869 211.186C152.745 191.043 166.834 178.892 180.707 172.524C194.582 166.154 208.22 165.58 221.176 168.547C243.831 173.736 264.415 189.762 280.597 204.593C281.317 204.735 282.036 204.887 282.752 205.051C285.055 205.579 287.337 206.22 289.595 206.959C294.361 207.016 299.061 207.62 303.674 208.677C304.287 208.817 304.898 208.968 305.508 209.124C311.873 208.528 318.137 208.97 324.255 210.217C332.788 208.748 341.163 209.218 349.271 211.075C375.165 217.006 398.353 237.095 415.356 253.374L415.167 253.597ZM271.539 180.987L271.35 181.21C254.344 164.928 231.249 144.938 205.509 139.042C192.648 136.096 179.13 136.67 165.378 142.984C151.622 149.298 137.609 161.366 123.777 181.445C88.5775 232.541 91.0234 278.891 90.1788 312.976C89.757 329.996 88.5162 344.039 81.2544 354.02C73.9776 364.022 60.7207 369.87 36.4747 370.706L36.4743 370.411L36.4748 370.117C60.6716 369.282 73.7062 363.448 80.8213 353.669C87.9513 343.869 89.2031 330.029 89.6256 312.98C90.4695 278.925 88.0139 232.379 123.336 181.105C137.212 160.963 151.3 148.812 165.173 142.443C179.048 136.074 192.686 135.499 205.642 138.467C231.536 144.398 254.724 164.486 271.727 180.766L271.539 180.987ZM266.338 164.381L266.15 164.602C249.144 148.32 226.049 128.331 200.309 122.435C187.448 119.489 173.929 120.063 160.177 126.377C146.421 132.691 132.409 144.759 118.577 164.837C83.3768 215.933 85.8223 262.284 84.9777 296.369C84.5559 313.39 83.315 327.432 76.0533 337.413C68.7765 347.415 55.5199 353.262 31.2744 354.099L31.274 353.804L31.2745 353.51C55.4712 352.675 68.506 346.841 75.6209 337.061C82.7508 327.261 84.002 313.422 84.4245 296.373C85.2684 262.318 82.8127 215.772 118.135 164.498C132.011 144.355 146.1 132.205 159.972 125.836C173.848 119.466 187.485 118.892 200.441 121.86C226.335 127.791 249.523 147.879 266.526 164.159L266.338 164.381ZM262.08 147.248L261.891 147.469C244.885 131.187 221.79 111.198 196.05 105.302C183.189 102.357 169.671 102.931 155.919 109.244C142.163 115.559 128.149 127.625 114.317 147.704C79.1178 198.8 81.5644 245.151 80.7197 279.236C80.2979 296.257 79.0566 310.299 71.7949 320.28C64.5181 330.281 51.2612 336.129 27.0152 336.966L27.0153 336.377C51.2121 335.542 64.2467 329.708 71.3617 319.928C78.4917 310.128 79.744 296.289 80.1665 279.24C81.0105 245.185 78.5542 198.639 113.876 147.365C127.753 127.222 141.841 115.072 155.713 108.703C169.589 102.333 183.227 101.759 196.183 104.726C222.077 110.657 245.265 130.747 262.268 147.026L262.08 147.248ZM258.094 130.087C241.088 113.804 217.993 93.8146 192.252 87.9187C179.391 84.9729 165.873 85.5477 152.121 91.861C138.365 98.1757 124.352 110.243 110.52 130.322C75.3206 181.418 77.7661 227.768 76.9215 261.853C76.4997 278.874 75.2588 292.916 67.9971 302.898C60.7203 312.899 47.4637 318.747 23.2182 319.583L23.2178 319.288L23.2183 318.994C47.4149 318.159 60.4498 312.325 67.5648 302.546C74.6946 292.746 75.9458 278.906 76.3683 261.857C77.2122 227.802 74.7565 181.257 110.079 129.983C123.955 109.84 138.044 97.6889 151.916 91.3204C165.791 84.9508 179.429 84.3766 192.385 87.3441C218.279 93.2752 241.467 113.364 258.47 129.643L258.094 130.087ZM254.562 112.442L254.373 112.665C237.367 96.3824 214.272 76.3925 188.532 70.4966C175.671 67.551 162.153 68.1252 148.401 74.4384C134.645 80.7531 120.632 92.8206 106.8 112.899C71.6001 163.996 74.0454 210.346 73.2007 244.431C72.779 261.452 71.5389 275.494 64.2772 285.475C57.0004 295.477 43.7435 301.325 19.4975 302.161L19.4971 301.866L19.4976 301.572C43.6944 300.737 56.729 294.903 63.844 285.123C70.974 275.323 72.2259 261.484 72.6484 244.435C73.4923 210.38 71.0362 163.834 106.358 112.561C120.234 92.4178 134.323 80.2668 148.196 73.8983C162.071 67.5286 175.709 66.9539 188.665 69.9215C214.559 75.8527 237.747 95.9409 254.75 112.22L254.562 112.442ZM250.631 95.1304L250.442 95.352C233.436 79.0699 210.342 59.0803 184.602 53.1843C171.741 50.2385 158.223 50.8133 144.47 57.1266C130.715 63.4413 116.701 75.508 102.869 95.5869C67.6694 146.683 70.1153 193.033 69.2707 227.118C68.8489 244.139 67.608 258.181 60.3463 268.162C53.0695 278.164 39.8125 284.012 15.5666 284.849L15.5667 284.259C39.7635 283.424 52.7981 277.59 59.9131 267.811C67.0431 258.011 68.2955 244.172 68.718 227.123C69.5619 193.068 67.1056 146.521 102.428 95.2475C116.304 75.1049 130.392 62.9542 144.265 56.5857C158.14 50.216 171.778 49.6413 184.734 52.6089C210.628 58.54 233.816 78.6291 250.819 94.9086L250.631 95.1304ZM246.091 78.2699C229.085 61.9878 205.99 41.9979 180.249 36.102C167.388 33.1562 153.87 33.731 140.118 40.0443C126.362 46.359 112.349 58.4262 98.5174 78.5048C63.3177 129.601 65.7631 175.952 64.9185 210.036C64.4967 227.057 63.2559 241.1 55.9941 251.081C48.7173 261.082 35.4603 266.93 11.2144 267.767L11.214 267.472L11.2145 267.178C35.4112 266.343 48.4459 260.508 55.561 250.729C62.691 240.929 63.9428 227.09 64.3653 210.041C65.2092 175.986 62.7535 129.44 98.0757 78.166C111.952 58.0233 126.04 45.8727 139.912 39.5042C153.788 33.1345 167.426 32.5598 180.382 35.5274C206.276 41.4585 229.464 61.5468 246.467 77.8262L246.091 78.2699ZM241.359 61.2839L241.171 61.5049C224.165 45.2228 201.07 25.2337 175.33 19.3378C162.469 16.392 148.951 16.9668 135.198 23.2801C121.443 29.5948 107.429 41.6612 93.5974 61.7398C58.3976 112.836 60.8436 159.187 59.999 193.272C59.5772 210.293 58.3363 224.335 51.0746 234.317C43.7978 244.318 30.541 250.166 6.29573 251.002L6.29529 250.707L6.29532 250.412C30.4922 249.577 43.5268 243.743 50.6418 233.964C57.7715 224.164 59.0233 210.325 59.4458 193.276C60.2897 159.221 57.8334 112.675 93.1557 61.4009C107.032 41.2581 121.121 29.1079 134.994 22.7395C148.869 16.37 162.506 15.7949 175.462 18.7624C201.356 24.6935 224.544 44.7826 241.547 61.0621L241.359 61.2839ZM235.775 44.897L235.586 45.1194C218.581 28.8372 195.486 8.8473 169.745 2.95141C156.884 0.00572556 143.367 0.580006 129.614 6.89316C115.859 13.2079 101.845 25.2754 88.0131 45.3543C52.8136 96.4504 55.2588 142.801 54.4142 176.886C53.9924 193.906 52.7524 207.949 45.4906 217.93C38.2139 227.931 24.9569 233.779 0.710959 234.616L0.71051 234.321L0.711024 234.027C24.9078 233.192 37.9425 227.357 45.0575 217.578C52.1875 207.778 53.4393 193.939 53.8618 176.889C54.7057 142.835 52.2489 96.2883 87.5709 45.0146C101.447 24.8717 115.536 12.7216 129.409 6.35308C143.284 -0.0166446 156.922 -0.591326 169.879 2.3763C195.773 8.30748 218.96 28.3957 235.963 44.6751L235.775 44.897ZM282.635 207.273C282.386 207.04 282.137 206.806 281.886 206.573C280.525 205.914 279.153 205.286 277.771 204.691C277.641 204.671 277.51 204.653 277.38 204.633C277.859 205.01 278.335 205.389 278.809 205.769C279.646 206.313 280.477 206.865 281.303 207.425C281.747 207.369 282.191 207.319 282.635 207.273ZM280.333 205.142C280.275 205.131 280.218 205.119 280.16 205.108C280.252 205.15 280.343 205.193 280.435 205.235C280.401 205.204 280.367 205.173 280.333 205.142ZM291.862 212.031C289.35 210.502 286.791 209.06 284.19 207.724C284.122 207.729 284.053 207.732 283.985 207.738C285.101 208.786 286.193 209.823 287.261 210.846L287.072 211.068L286.884 211.29C285.689 210.146 284.463 208.983 283.209 207.808C282.82 207.845 282.432 207.885 282.043 207.93C284.443 209.577 286.793 211.288 289.088 213.038C290.014 212.678 290.939 212.342 291.862 212.031ZM288.454 213.29C286.873 212.09 285.267 210.91 283.638 209.756C285.103 210.999 286.542 212.246 287.95 213.493C288.118 213.424 288.286 213.358 288.454 213.29ZM287.647 206.964C285.984 206.461 284.308 206.013 282.62 205.627C282.226 205.536 281.83 205.449 281.434 205.366C281.69 205.602 281.946 205.836 282.2 206.071C282.907 206.414 283.611 206.766 284.312 207.124C285.427 207.04 286.539 206.986 287.647 206.964ZM298.128 221.106C295.192 218.599 292.144 216.11 288.993 213.7C288.807 213.773 288.62 213.845 288.434 213.92C291.445 216.598 294.321 219.264 297.047 221.851C297.407 221.598 297.768 221.351 298.128 221.106ZM297.214 210.494C294.675 209.392 292.102 208.403 289.496 207.547C288.108 207.533 286.715 207.564 285.316 207.646C287.783 208.941 290.213 210.327 292.598 211.791C294.141 211.293 295.679 210.86 297.214 210.494ZM301.882 218.709C298.842 216.511 295.715 214.402 292.512 212.428C291.552 212.743 290.59 213.082 289.627 213.451C292.732 215.836 295.737 218.295 298.63 220.769C299.715 220.044 300.799 219.358 301.882 218.709ZM307.518 215.656C304.444 213.916 301.305 212.313 298.11 210.887C296.493 211.25 294.871 211.682 293.245 212.192C296.385 214.143 299.449 216.222 302.429 218.384C304.128 217.386 305.824 216.477 307.518 215.656ZM303.541 209.253C299.577 208.345 295.55 207.771 291.474 207.597C293.735 208.397 295.972 209.291 298.181 210.272C300.056 209.858 301.923 209.539 303.782 209.31C303.702 209.291 303.622 209.271 303.541 209.253ZM314.669 212.696C311.641 211.523 308.567 210.52 305.453 209.719C303.339 209.92 301.214 210.237 299.08 210.678C302.165 212.084 305.195 213.653 308.164 215.348C308.376 215.248 308.589 215.149 308.801 215.051C310.762 214.151 312.719 213.371 314.669 212.696ZM322.674 210.513C317.604 209.591 312.44 209.235 307.205 209.577C310.018 210.365 312.796 211.315 315.535 212.4C317.925 211.612 320.306 210.987 322.674 210.513Z" fill="url(#paint0_radial_21_37)" fill-opacity="0.58"/>
<defs>
<radialGradient id="paint0_radial_21_37" cx="0" cy="0" r="1" gradientTransform="matrix(-138.901 147.162 -139.402 -150.263 161.995 193.56)" gradientUnits="userSpaceOnUse">
<stop stop-color="white"/>
<stop offset="1" stop-color="#1E1E1E" stop-opacity="0"/>
<stop offset="1" stop-color="#0E0E35" stop-opacity="0"/>
<stop offset="1" stop-color="white" stop-opacity="0"/>
</radialGradient>
</defs>
</svg>
