<svg width="170" height="52" viewBox="0 0 170 52" fill="none" xmlns="http://www.w3.org/2000/svg">
<g clip-path="url(#clip0)">
<path d="M48.344 44.1882H50.3956C50.4482 45.1614 50.9479 45.9505 52.4735 45.9505C53.7623 45.9505 54.2621 45.5034 54.2621 44.7669C54.2621 42.952 48.5281 44.2145 48.5281 40.8478C48.5281 39.3749 49.5013 38.1387 52.3157 38.1387C55.2352 38.1387 56.1295 39.559 56.1558 41.4002H54.1042C53.999 40.4533 53.6571 39.8483 52.2105 39.8483C50.869 39.8483 50.5534 40.3481 50.5534 40.7952C50.5534 42.6627 56.261 41.1898 56.261 44.7143C56.261 46.082 55.3931 47.6339 52.4998 47.6339C49.5013 47.6339 48.3703 46.3714 48.344 44.1882Z" fill="#1FB4C3"/>
<path d="M57.4972 37.8756C57.4972 37.0603 58.0233 36.8499 58.7597 36.8499C59.4962 36.8499 59.996 37.0603 59.996 37.8756C59.996 38.691 59.4962 38.9014 58.7597 38.9014C58.0233 38.9014 57.4972 38.691 57.4972 37.8756ZM57.7865 40.0851H59.7855V47.5024H57.7865V40.0851Z" fill="#1FB4C3"/>
<path d="M60.864 44.8985H62.8104C62.8104 45.6613 63.4153 46.0822 64.4674 46.0822C65.388 46.0822 65.8878 45.7665 65.8878 45.3194C65.8878 43.9517 61.0218 44.9248 61.0218 42.3209C61.0218 40.7691 62.2054 39.98 64.3096 39.98C66.4927 39.98 67.5974 40.8743 67.5974 42.6102H65.7562C65.6773 41.8212 65.3091 41.5055 64.257 41.5055C63.2575 41.5055 62.9419 41.8738 62.9419 42.242C62.9419 43.5571 67.8078 42.4524 67.8078 45.2668C67.8078 46.6871 66.4664 47.634 64.4674 47.634C62.0739 47.634 60.864 46.7397 60.864 44.8985Z" fill="#1FB4C3"/>
<path d="M69.5964 45.0562V41.7158H68.518V40.7426L69.5964 40.1377V38.2439H71.5691V40.0851H73.4892V41.7158H71.648V45.0299C71.648 45.8453 72.1215 46.0557 73.4892 45.9505V47.5813C70.8327 47.7917 69.5964 47.3446 69.5964 45.0562Z" fill="#1FB4C3"/>
<path d="M73.9889 43.7938C73.9889 41.9527 74.6465 39.98 77.6449 39.98C80.4593 39.98 81.2484 42.242 81.038 44.5829H76.0142C76.1194 45.635 76.7507 46.0822 77.6186 46.0822C78.5129 46.0822 78.8286 45.6876 78.9601 45.2668H81.0643C80.9328 46.503 80.0911 47.634 77.6975 47.634C74.6465 47.634 73.9889 45.7139 73.9889 43.7938ZM78.9864 43.0574C78.9864 42.242 78.5392 41.5318 77.4871 41.5318C76.4876 41.5318 76.0668 42.2157 76.0142 43.0574H78.9864Z" fill="#1FB4C3"/>
<path d="M82.2742 40.0851H83.1159L83.563 41.295C83.8786 40.6901 84.5888 39.9536 85.9828 39.9536C86.956 39.9536 87.6399 40.3219 88.0344 41.0583C88.2711 40.6112 88.8761 39.9536 90.2438 39.9536C92.2691 39.9536 92.7163 41.4266 92.7163 43.0573V47.4761H90.691V42.9258C90.691 42.2156 90.5332 41.6107 89.6126 41.6107C88.692 41.6107 88.5079 42.1893 88.5079 42.9258V47.4761H86.4826V42.9258C86.4826 42.2156 86.3248 41.6107 85.4042 41.6107C84.4836 41.6107 84.2732 42.2156 84.2732 42.9521V47.4761H82.3005V40.0851H82.2742Z" fill="#1FB4C3"/>
<path d="M93.7421 45.3194C93.7421 43.9254 94.6627 43.2941 96.8458 43.11L98.8185 42.9259C98.7921 42.1105 98.4239 41.5055 97.3192 41.5055C96.2671 41.5055 95.9515 41.979 95.9515 42.7154L93.9788 42.7417C93.9788 41.2162 94.61 39.98 97.2666 39.98C100.344 39.98 100.791 41.3477 100.791 43.3204V47.5288H99.9495L99.5023 46.3452C99.0552 47.029 98.1872 47.6603 96.6879 47.6603C95.0572 47.634 93.7421 46.8975 93.7421 45.3194ZM98.8185 44.2673L97.1614 44.4514C96.1356 44.5566 95.82 44.8196 95.82 45.2142C95.82 45.7139 96.2145 46.0822 97.1877 46.0822C98.3976 46.0822 98.7921 45.2405 98.8185 44.2673Z" fill="#1FB4C3"/>
<path d="M105.131 43.7935C105.131 41.8208 105.92 39.9797 108.261 39.9797C109.524 39.9797 110.181 40.4531 110.47 40.9003V37.2705H112.443V47.5022H111.601L111.154 46.3186C110.681 47.055 109.944 47.6337 108.287 47.6337C105.999 47.6337 105.131 45.7662 105.131 43.7935ZM110.523 43.7935C110.523 42.5573 110.313 41.663 108.892 41.663C107.525 41.663 107.156 42.531 107.156 43.7935C107.156 45.0823 107.525 45.9766 108.866 45.9766C110.286 45.9766 110.523 45.1086 110.523 43.7935Z" fill="#1FB4C3"/>
<path d="M113.679 43.7938C113.679 41.9527 114.337 39.98 117.335 39.98C120.15 39.98 120.939 42.242 120.728 44.5829H115.705C115.81 45.635 116.441 46.0822 117.309 46.0822C118.203 46.0822 118.519 45.6876 118.651 45.2668H120.755C120.623 46.503 119.782 47.634 117.388 47.634C114.337 47.634 113.679 45.7139 113.679 43.7938ZM118.677 43.0574C118.677 42.242 118.23 41.5318 117.178 41.5318C116.178 41.5318 115.757 42.2157 115.705 43.0574H118.677Z" fill="#1FB4C3"/>
<path d="M125.437 38.2439H131.986V39.9536H127.462V41.9525H131.539V43.6096H127.462V45.7927H131.986V47.5024H125.437V38.2439Z" fill="#1FB4C3"/>
<path d="M133.406 40.0852H134.222L134.695 41.2425C135.195 40.4797 135.879 39.98 137.483 39.98C139.824 39.98 140.324 41.4003 140.324 43.4782V47.5288H138.351V43.3204C138.351 42.2683 138.141 41.6633 136.904 41.6633C135.668 41.6633 135.379 42.2946 135.379 43.373V47.5288H133.406V40.0852Z" fill="#1FB4C3"/>
<path d="M141.35 44.8985H143.296C143.296 45.6613 143.901 46.0822 144.953 46.0822C145.874 46.0822 146.373 45.7665 146.373 45.3194C146.373 43.9517 141.507 44.9248 141.507 42.3209C141.507 40.7691 142.691 39.98 144.795 39.98C146.978 39.98 148.083 40.8743 148.083 42.6102H146.242C146.163 41.8212 145.795 41.5055 144.743 41.5055C143.743 41.5055 143.427 41.8738 143.427 42.242C143.427 43.5571 148.293 42.4524 148.293 45.2668C148.293 46.6871 146.952 47.634 144.953 47.634C142.559 47.634 141.35 46.7397 141.35 44.8985Z" fill="#1FB4C3"/>
<path d="M149.188 37.8756C149.188 37.0603 149.714 36.8499 150.45 36.8499C151.187 36.8499 151.686 37.0603 151.686 37.8756C151.686 38.691 151.187 38.9014 150.45 38.9014C149.687 38.9014 149.188 38.691 149.188 37.8756ZM149.451 40.0851H151.45V47.5024H149.451V40.0851Z" fill="#1FB4C3"/>
<path d="M152.949 40.0852H153.764L154.238 41.2425C154.738 40.4797 155.421 39.98 157.026 39.98C159.367 39.98 159.867 41.4003 159.867 43.4782V47.5288H157.894V43.3204C157.894 42.2683 157.683 41.6633 156.447 41.6633C155.211 41.6633 154.922 42.2946 154.922 43.373V47.5288H152.949V40.0852Z" fill="#1FB4C3"/>
<path d="M160.919 43.7938C160.919 41.8475 161.734 39.98 164.601 39.98C167.442 39.98 168.283 41.8212 168.283 43.7938C168.283 45.7928 167.442 47.634 164.575 47.634C161.734 47.634 160.919 45.7665 160.919 43.7938ZM166.363 43.7938C166.363 42.6102 166.021 41.6633 164.627 41.6633C163.26 41.6633 162.891 42.5839 162.891 43.7938C162.891 45.0301 163.26 45.9243 164.601 45.9243C165.942 45.9243 166.363 45.0301 166.363 43.7938Z" fill="#1FB4C3"/>
<path d="M79.5387 15.2029C76.5928 13.4932 72.9368 13.4932 69.9909 15.2029H69.9646C68.0445 16.3076 66.8609 18.3855 66.8609 20.5949V24.7244C66.8609 26.9338 68.0445 29.0117 69.9646 30.1164L69.9909 30.1427C71.4638 30.9844 73.0946 31.4052 74.7516 31.4052C76.4087 31.4052 78.0394 30.9844 79.5124 30.1427L79.5387 30.1164C81.4588 29.0117 82.6424 26.9338 82.6424 24.7244V20.5949C82.6424 18.3592 81.4588 16.3076 79.5387 15.2029ZM78.7496 24.6981C78.7496 25.5135 78.3025 26.3025 77.5923 26.7234L77.566 26.7497C75.83 27.7492 73.6732 27.7492 71.9636 26.7497L71.9373 26.7234C71.2271 26.3025 70.78 25.5398 70.78 24.6981V20.5949C70.78 19.7795 71.2271 18.9905 71.9373 18.5696H71.9636C72.8316 18.0699 73.8047 17.8068 74.7779 17.8068C75.7511 17.8068 76.7243 18.0699 77.5923 18.5696L77.6186 18.5959C78.3288 19.0168 78.7759 19.7795 78.7759 20.6212V24.6981H78.7496Z" fill="black"/>
<path d="M114.495 15.2029L114.468 15.1766C111.523 13.4932 107.893 13.4932 104.947 15.1766H104.921C103.001 16.2813 101.817 18.3592 101.817 20.5686V24.6981C101.817 26.9075 103.001 28.9854 104.921 30.0901L104.947 30.1164C106.42 30.9581 108.051 31.3789 109.708 31.3789C111.365 31.3789 112.995 30.9581 114.468 30.1164H114.495C115.81 29.3536 116.809 28.1437 117.283 26.6971L113.574 25.4609C113.39 25.9869 113.022 26.4603 112.522 26.7497H112.496C110.76 27.7492 108.603 27.7492 106.893 26.7497L106.867 26.7234C106.157 26.3025 105.71 25.5398 105.71 24.6981V24.3824H117.598V20.5949C117.598 18.3592 116.388 16.3076 114.495 15.2029ZM105.71 20.4897C105.736 19.7006 106.183 18.9904 106.867 18.5696H106.893C108.629 17.5701 110.786 17.5701 112.496 18.5696L112.522 18.5959C113.206 18.9904 113.653 19.7269 113.679 20.516H105.71V20.4897Z" fill="black"/>
<path d="M166.311 15.203C163.365 13.4934 159.709 13.4934 156.763 15.1767L156.737 15.203C154.816 16.3077 153.633 18.3856 153.633 20.595V24.7245C153.633 26.9339 154.816 29.0118 156.737 30.1165L156.763 30.1428C158.236 30.9845 159.866 31.4054 161.524 31.4054C163.181 31.4054 164.811 30.9845 166.284 30.1428L166.311 30.1165C168.231 29.0118 169.414 26.9339 169.414 24.7245V20.595C169.441 18.3593 168.231 16.3077 166.311 15.203ZM165.548 24.6982C165.548 25.5136 165.101 26.3027 164.391 26.7235L164.364 26.7498C162.628 27.7493 160.471 27.7493 158.762 26.7498L158.735 26.7235C158.025 26.3027 157.578 25.5399 157.578 24.6982V20.595C157.578 19.7797 158.025 18.9906 158.735 18.5698L158.762 18.5434C159.63 18.0437 160.603 17.7807 161.576 17.7807C162.549 17.7807 163.523 18.0437 164.391 18.5434L164.417 18.5698C165.127 18.9906 165.574 19.7534 165.574 20.595V24.6982H165.548Z" fill="black"/>
<path d="M61.1796 7.86452L60.9166 7.70671C57.8655 5.94444 54.0516 5.94444 51.0005 7.70671L50.7375 7.86452C48.6859 9.04814 47.4234 11.2575 47.4234 13.5985V13.8089V18.254V30.9844H51.3162V24.3299C52.7628 25.0926 54.3673 25.4872 55.9717 25.4872C57.6814 25.4872 59.391 25.04 60.9429 24.1721L61.2059 24.0142C63.2575 22.8306 64.52 20.6212 64.52 18.2803V13.6248C64.4937 11.2575 63.2312 9.04814 61.1796 7.86452ZM60.6009 18.254C60.6009 19.2272 60.0749 20.1215 59.2332 20.6212L58.9702 20.779C57.1027 21.8574 54.8144 21.8574 52.9469 20.779L52.6839 20.6212C51.8422 20.1215 51.3162 19.2272 51.3162 18.254V13.8352V13.6248C51.3162 12.6516 51.8422 11.7573 52.6839 11.2575L52.9469 11.0997C53.8675 10.5737 54.9196 10.2844 55.9454 10.2844C56.9975 10.2844 58.0233 10.5474 58.9439 11.0997L59.2069 11.2575C60.0486 11.7573 60.5746 12.6516 60.5746 13.6248V18.254H60.6009Z" fill="black"/>
<path d="M143.769 14.2034C141.323 15.5974 139.824 18.2277 139.824 21.042V30.9318H143.717V21.042C143.717 19.6217 144.48 18.3066 145.716 17.5964C146.952 16.8862 148.478 16.8862 149.714 17.5964L150.818 18.2277L152.765 14.861L151.66 14.2297C149.24 12.8094 146.216 12.8094 143.769 14.2034Z" fill="black"/>
<path d="M89.823 26.3552V6.20752H85.9302V26.3552C85.9302 28.9329 88.0344 31.0371 90.6121 31.0371H91.6379V27.1443H90.6121C90.1649 27.118 89.823 26.7761 89.823 26.3552Z" fill="black"/>
<path d="M98.7395 13.4407H94.8467V31.1159H98.7395V13.4407Z" fill="black"/>
<path d="M132.512 14.8085C129.724 13.5197 126.436 13.6249 123.753 15.1767H123.727C121.807 16.2814 120.623 18.3593 120.623 20.5688V24.6982C120.623 26.9077 121.807 28.9855 123.727 30.0903L123.753 30.1166C125.226 30.9582 126.857 31.3791 128.514 31.3791C130.171 31.3791 131.802 30.9582 133.275 30.1166H133.301C135.221 29.0119 136.405 26.934 136.405 24.7245V20.5951C136.405 20.4372 136.378 20.2794 136.378 20.1479H136.405V6.33911H132.512V14.8085ZM132.512 24.6982C132.512 25.5136 132.065 26.3027 131.355 26.7235H131.328C129.592 27.723 127.436 27.723 125.726 26.7235L125.7 26.6972C124.989 26.2764 124.542 25.5136 124.542 24.6719V20.5951C124.542 19.7797 124.989 18.9906 125.7 18.5698H125.726C126.594 18.07 127.567 17.807 128.54 17.807C129.513 17.807 130.487 18.0437 131.328 18.5435L131.355 18.5698C132.065 18.9906 132.512 19.7534 132.512 20.5951V24.6982Z" fill="black"/>
<path d="M96.8984 6.20752C96.1882 6.20752 95.5306 6.57575 95.1624 7.20701C94.7942 7.81197 94.7942 8.57474 95.1624 9.206C95.5306 9.81096 96.1619 10.2055 96.8984 10.2055C97.6086 10.2055 98.2661 9.83726 98.6344 9.206C99.0026 8.60105 99.0026 7.83827 98.6344 7.20701C98.2661 6.57575 97.6086 6.20752 96.8984 6.20752Z" fill="black"/>
<path d="M15.4133 19.9109L33.562 8.96911L18.9115 0.499715C17.7542 -0.18415 16.3075 -0.18415 15.1239 0.499715L0.683879 8.94281C-0.236708 9.49516 -0.236708 10.8366 0.683879 11.3626L15.4133 19.9109Z" fill="#1FB4C3"/>
<path d="M2.1042 22.7778L15.7026 30.6422C16.5706 31.142 17.0966 32.0626 17.0966 33.0621V50.5795C17.0966 51.6579 15.9393 52.3418 14.9924 51.7894L1.39403 43.9513C0.52605 43.4515 0 42.5309 0 41.5315V23.9877C0 22.9093 1.15731 22.2517 2.1042 22.7778Z" fill="#FAA41F"/>
<path d="M33.562 8.96924L15.4133 19.9111C16.4654 20.516 17.1229 21.647 17.1229 22.857V41.9263L33.5883 32.4311C34.7456 31.7472 35.482 30.511 35.482 29.1432V12.2307C35.4557 10.8893 34.7456 9.6268 33.562 8.96924Z" fill="#EE2252"/>
</g>
<defs>
<clipPath id="clip0">
<rect width="169.441" height="52" fill="white"/>
</clipPath>
</defs>
</svg>
