<svg xmlns="http://www.w3.org/2000/svg" viewBox="0 0 359 111" width="255" height="79">
	<style>
		tspan { white-space:pre }
		.shp0 { fill: #ffffff } 
	</style>
	<g id="Layer_2">
		<g id="Layer_1-2">
			<path id="Layer" class="shp0" d="M70.8 67.83L37.09 87.29L37.09 48.23C37.09 48.1 37.08 47.97 37.08 47.84C37.07 47.71 37.06 47.58 37.04 47.45C37.03 47.32 37.01 47.19 37 47.06C36.98 46.93 36.95 46.8 36.93 46.67C36.93 46.54 36.93 46.42 36.86 46.3C36.83 46.18 36.8 46.05 36.77 45.93C36.74 45.81 36.7 45.69 36.66 45.56C36.62 45.44 36.58 45.32 36.54 45.2C36.49 45.09 36.45 44.97 36.4 44.85C36.39 44.84 36.39 44.82 36.38 44.81C36.38 44.8 36.37 44.79 36.36 44.77C36.36 44.76 36.35 44.75 36.34 44.74C36.34 44.72 36.33 44.71 36.32 44.7C36.27 44.59 36.22 44.49 36.17 44.38C36.12 44.28 36.06 44.17 36.01 44.07C35.95 43.97 35.89 43.87 35.84 43.77C35.78 43.67 35.71 43.57 35.65 43.47C35.58 43.37 35.52 43.27 35.45 43.18C35.38 43.08 35.3 42.97 35.22 42.87C35.14 42.77 35.06 42.68 34.97 42.58C34.89 42.48 34.81 42.39 34.72 42.29C34.63 42.2 34.54 42.11 34.45 42.02L34.45 41.96L71.45 19.69C71.62 19.82 71.8 19.94 71.96 20.08C72.12 20.22 72.3 20.38 72.46 20.55C72.52 20.62 72.58 20.68 72.63 20.75C72.69 20.82 72.74 20.89 72.79 20.96C72.85 21.03 72.9 21.1 72.95 21.17C73 21.24 73.05 21.32 73.1 21.39C73.22 21.57 73.35 21.74 73.45 21.92C73.49 22.01 73.53 22.09 73.56 22.18C73.6 22.27 73.63 22.36 73.66 22.45C73.69 22.54 73.72 22.63 73.75 22.72C73.78 22.82 73.81 22.91 73.83 23C73.89 23.17 73.97 23.33 74.02 23.51C74.06 23.65 74.09 23.79 74.11 23.93C74.14 24.07 74.16 24.22 74.18 24.36C74.2 24.5 74.22 24.64 74.22 24.79C74.23 24.93 74.24 25.08 74.24 25.22L74.24 61.86C74.24 62.46 74.16 63.06 74 63.64C73.85 64.22 73.61 64.78 73.31 65.3C73.01 65.82 72.65 66.3 72.22 66.73C71.8 67.16 71.32 67.53 70.8 67.83L70.8 67.83ZM0 20.73C0 20.58 0.01 20.43 0.05 20.28C0.09 20.13 0.15 19.99 0.22 19.86C0.3 19.72 0.39 19.6 0.5 19.5C0.61 19.39 0.73 19.3 0.86 19.22L32.17 0.92C32.69 0.62 33.25 0.39 33.83 0.23C34.41 0.08 35.01 0 35.61 0C36.22 0 36.82 0.08 37.4 0.23C37.98 0.39 38.54 0.62 39.06 0.92L68.88 18.14L32.08 40.31L0.87 22.22C0.74 22.15 0.62 22.06 0.51 21.95C0.4 21.85 0.31 21.73 0.23 21.6C0.15 21.46 0.09 21.32 0.06 21.18C0.02 21.03 0 20.88 0 20.73L0 20.73ZM34.47 108.36C34.47 108.66 34.39 108.96 34.24 109.22C34.09 109.49 33.87 109.71 33.61 109.86C33.34 110.01 33.05 110.09 32.74 110.09C32.44 110.08 32.14 110 31.88 109.85L2.39 92.85C2.03 92.64 1.7 92.39 1.41 92.09C1.11 91.8 0.86 91.47 0.65 91.11C0.44 90.75 0.28 90.37 0.17 89.97C0.06 89.57 0 89.16 0 88.74L0 50.74C0 50.59 0.02 50.44 0.06 50.29C0.09 50.15 0.15 50 0.23 49.87C0.3 49.74 0.39 49.62 0.5 49.51C0.61 49.41 0.73 49.32 0.86 49.24C0.93 49.2 0.99 49.17 1.06 49.14C1.13 49.11 1.21 49.09 1.28 49.07C1.35 49.05 1.43 49.03 1.5 49.02C1.58 49.01 1.65 49 1.73 49C1.81 49 1.88 49.01 1.95 49.02C2.03 49.03 2.1 49.05 2.18 49.07C2.25 49.09 2.32 49.11 2.39 49.14C2.46 49.17 2.52 49.2 2.59 49.24L32.09 66.3C32.45 66.51 32.78 66.76 33.07 67.06C33.37 67.36 33.62 67.69 33.83 68.05C34.04 68.41 34.2 68.79 34.31 69.2C34.41 69.6 34.47 70.01 34.47 70.43L34.47 108.43L34.47 108.36Z" />
			<path id="Layer" class="shp0" d="M102.37 93.59L106.72 93.59C106.81 95.65 107.92 97.33 111.13 97.33C113.86 97.33 114.93 96.41 114.93 94.82C114.93 90.96 102.8 93.65 102.8 86.52C102.8 83.39 104.88 80.76 110.8 80.76C116.95 80.76 118.88 83.76 118.94 87.68L114.62 87.68C114.38 85.68 113.7 84.37 110.62 84.37C107.77 84.37 107.1 85.37 107.1 86.37C107.1 90.37 119.17 87.23 119.17 94.68C119.17 97.56 117.33 100.83 111.24 100.83C104.82 100.85 102.4 98.19 102.37 93.59Z" />
			<path id="Layer" class="shp0" d="M121.78 80.24C121.78 78.49 122.91 78.07 124.47 78.07C126.03 78.07 127.11 78.49 127.11 80.24C127.11 81.99 126.03 82.38 124.47 82.38C122.91 82.38 121.78 82 121.78 80.24ZM122.36 84.93L126.59 84.93L126.59 100.61L122.36 100.61L122.36 84.93Z" />
			<path id="Layer" class="shp0" d="M128.89 95.09L133 95.09C133 96.72 134.26 97.61 136.49 97.61C138.42 97.61 139.49 96.93 139.49 96.01C139.49 93.13 129.19 95.19 129.19 89.64C129.19 86.37 131.68 84.64 136.19 84.64C140.7 84.64 143.19 86.54 143.19 90.18L139.27 90.18C139.09 88.5 138.27 87.83 136.08 87.83C133.89 87.83 133.33 88.59 133.33 89.39C133.33 92.14 143.65 89.85 143.65 95.79C143.65 98.79 140.83 100.79 136.65 100.79C131.46 100.85 128.89 99 128.89 95.09Z" />
			<path id="Layer" class="shp0" d="M147.37 95.4L147.37 88.35L145.07 88.35L145.07 86.27L147.37 84.99L147.37 81L151.53 81L151.53 84.92L155.58 84.92L155.58 88.34L151.66 88.34L151.66 95.34C151.66 97.09 152.66 97.51 155.58 97.34L155.58 100.77C150 101.22 147.37 100.24 147.37 95.4Z" />
			<path id="Layer" fill-rule="evenodd" class="shp0" d="M156.66 92.77C156.66 88.85 158.07 84.68 164.41 84.68C170.41 84.68 172.04 89.46 171.58 94.42L161 94.42C160.99 94.86 161.07 95.29 161.24 95.7C161.41 96.1 161.66 96.47 161.97 96.77C162.29 97.07 162.67 97.3 163.08 97.44C163.5 97.59 163.93 97.65 164.37 97.61C166.27 97.61 166.91 96.78 167.21 95.86L171.66 95.86C171.38 98.49 169.57 100.86 164.52 100.86C158 100.85 156.66 96.81 156.66 92.77ZM167.23 91.2C167.26 90.78 167.2 90.35 167.05 89.95C166.9 89.55 166.67 89.19 166.37 88.89C166.07 88.58 165.71 88.35 165.32 88.2C164.92 88.04 164.49 87.98 164.07 88C162 88 161 89.4 161 91.2L167.23 91.2Z" />
			<path id="Layer" class="shp0" d="M174.22 84.93L176 84.93L177 87.5C177.24 87.04 177.55 86.63 177.91 86.26C178.27 85.89 178.68 85.58 179.13 85.33C179.59 85.08 180.07 84.9 180.57 84.79C181.08 84.68 181.6 84.64 182.11 84.68C182.54 84.64 182.98 84.67 183.4 84.76C183.83 84.85 184.24 85 184.62 85.2C185 85.41 185.35 85.66 185.66 85.97C185.97 86.27 186.23 86.62 186.44 87C186.97 86 188.22 84.67 191.1 84.67C195.39 84.67 196.31 87.76 196.31 91.26L196.31 100.6L192.05 100.6L192.05 91C192.05 89.5 191.71 88.24 189.75 88.24C187.79 88.24 187.39 89.47 187.39 91L187.39 100.62L183.14 100.62L183.14 91C183.14 89.5 182.8 88.24 180.84 88.24C178.88 88.24 178.42 89.53 178.42 91.06L178.42 100.62L174.22 100.62L174.22 84.93Z" />
			<path id="Layer" fill-rule="evenodd" class="shp0" d="M198.5 96C198.5 93 200.5 91.74 205.06 91.35L209.22 90.98C209.22 89.23 208.39 87.98 206.07 87.98C203.75 87.98 203.19 88.98 203.19 90.52L199.02 90.52C199.02 87.3 200.34 84.7 205.97 84.7C212.5 84.7 213.42 87.58 213.42 91.7L213.42 100.58L211.64 100.58L210.69 98.07C209.77 99.51 207.93 100.82 204.75 100.82C201.26 100.85 198.5 99.32 198.5 96ZM209.22 93.75C209.22 93.77 209.22 93.78 209.22 93.8L209.22 93.8L209.22 93.75ZM205.7 94.19C203.52 94.41 202.88 94.96 202.88 95.79C202.88 96.86 203.71 97.63 205.76 97.63C208.34 97.58 209.18 95.83 209.22 93.8L205.7 94.19Z" />
			<path id="Layer" fill-rule="evenodd" class="shp0" d="M222.63 92.77C222.63 88.6 224.31 84.68 229.27 84.68C231.94 84.68 233.27 85.68 233.96 86.68L233.96 79L238.15 79L238.15 100.66L236.38 100.66L235.43 98.15C234.43 99.71 232.86 100.9 229.36 100.9C224.43 100.85 222.63 96.9 222.63 92.77ZM230.59 88.23C227.59 88.23 226.91 90.07 226.91 92.77C226.91 95.47 227.68 97.36 230.56 97.36C233.44 97.36 234.05 95.52 234.05 92.77C234.05 90.16 233.59 88.23 230.59 88.23Z" />
			<path id="Layer" fill-rule="evenodd" class="shp0" d="M240.74 92.77C240.74 88.85 242.15 84.68 248.49 84.68C254.49 84.68 256.12 89.46 255.66 94.42L245 94.42C244.99 94.86 245.07 95.29 245.24 95.69C245.41 96.1 245.66 96.46 245.98 96.76C246.3 97.06 246.67 97.29 247.08 97.44C247.5 97.59 247.93 97.64 248.37 97.61C250.27 97.61 250.91 96.78 251.22 95.86L255.66 95.86C255.38 98.49 253.58 100.86 248.52 100.86C242.12 100.85 240.74 96.81 240.74 92.77ZM251.31 91.2C251.35 90.77 251.29 90.35 251.15 89.94C251.01 89.54 250.78 89.17 250.48 88.87C250.18 88.56 249.81 88.33 249.41 88.18C249.01 88.03 248.59 87.97 248.16 88C246.04 88 245.16 89.44 245.03 91.24L251.31 91.2Z" />
			<path id="Layer" class="shp0" d="M265.63 81L279.51 81L279.51 84.61L270 84.61L270 88.84L278.61 88.84L278.61 92.36L270 92.36L270 97L279.56 97L279.56 100.62L265.63 100.62L265.63 81Z" />
			<path id="Layer" class="shp0" d="M282.49 84.93L284.24 84.93L285.24 87.38C286.31 85.75 287.72 84.68 291.15 84.68C296.15 84.68 297.15 87.68 297.15 92.06L297.15 100.61L293 100.61L293 91.73C293 89.49 292.54 88.2 289.93 88.2C287.32 88.2 286.72 89.55 286.72 91.82L286.72 100.61L282.52 100.61L282.49 84.93Z" />
			<path id="Layer" class="shp0" d="M299.32 95.09L303.45 95.09C303.45 96.72 304.71 97.61 306.95 97.61C308.88 97.61 309.95 96.93 309.95 96.01C309.95 93.13 299.66 95.19 299.66 89.64C299.66 86.37 302.14 84.64 306.66 84.64C311.18 84.64 313.66 86.54 313.66 90.18L309.7 90.18C309.52 88.5 308.75 87.83 306.52 87.83C304.29 87.83 303.76 88.59 303.76 89.39C303.76 92.14 314.08 89.85 314.08 95.79C314.08 98.79 311.27 100.79 307.08 100.79C301.89 100.85 299.32 99 299.32 95.09Z" />
			<path id="Layer" class="shp0" d="M315.9 80.24C315.9 78.49 317.04 78.07 318.6 78.07C320.16 78.07 321.23 78.49 321.23 80.24C321.23 81.99 320.16 82.38 318.6 82.38C317.04 82.38 315.9 82 315.9 80.24ZM316.49 84.93L320.71 84.93L320.71 100.61L316.49 100.61L316.49 84.93Z" />
			<path id="Layer" class="shp0" d="M323.87 84.93L325.62 84.93L326.62 87.38C327.69 85.75 329.1 84.68 332.53 84.68C337.53 84.68 338.53 87.68 338.53 92.06L338.53 100.61L334.34 100.61L334.34 91.73C334.34 89.49 333.88 88.2 331.27 88.2C328.66 88.2 328.06 89.55 328.06 91.82L328.06 100.61L323.86 100.61L323.87 84.93Z" />
			<path id="Layer" fill-rule="evenodd" class="shp0" d="M340.76 92.74C340.76 88.6 342.48 84.68 348.57 84.68C354.66 84.68 356.38 88.6 356.38 92.74C356.38 96.88 354.61 100.85 348.51 100.85C342.41 100.85 340.76 96.9 340.76 92.74ZM352.25 92.74C352.25 90.25 351.51 88.23 348.57 88.23C345.63 88.23 344.9 90.16 344.9 92.74C344.9 95.32 345.69 97.27 348.51 97.27C351.33 97.27 352.25 95.37 352.25 92.74Z" />
			<path id="Layer" fill-rule="evenodd" class="shp0" d="M168.42 32.17C169.42 32.75 170.33 33.45 171.14 34.27C171.96 35.09 172.66 36 173.23 37C173.81 38 174.25 39.07 174.55 40.18C174.85 41.29 175 42.44 175 43.59L175 52.31C175 53.46 174.85 54.6 174.55 55.71C174.26 56.82 173.82 57.89 173.25 58.89C172.67 59.89 171.97 60.8 171.16 61.62C170.36 62.43 169.44 63.14 168.45 63.72C166.92 64.6 165.29 65.27 163.59 65.73C161.89 66.18 160.14 66.41 158.38 66.41C156.62 66.41 154.87 66.18 153.17 65.73C151.47 65.27 149.84 64.6 148.31 63.72L148.25 63.72C147.25 63.14 146.34 62.44 145.52 61.62C144.71 60.81 144.01 59.89 143.43 58.9C142.86 57.9 142.42 56.83 142.12 55.72C141.82 54.61 141.67 53.46 141.67 52.31L141.67 43.59C141.67 42.44 141.82 41.29 142.12 40.18C142.42 39.07 142.86 38 143.44 37C144.02 36 144.72 35.08 145.53 34.27C146.35 33.45 147.26 32.75 148.26 32.17C149.79 31.29 151.42 30.62 153.12 30.17C154.83 29.71 156.58 29.48 158.34 29.48C160.1 29.48 161.85 29.71 163.56 30.17C165.26 30.62 166.89 31.29 168.42 32.17ZM166.71 43.58C166.71 43.15 166.65 42.72 166.54 42.31C166.43 41.89 166.27 41.49 166.05 41.12C165.84 40.75 165.57 40.41 165.27 40.1C164.96 39.8 164.62 39.53 164.25 39.32C163.35 38.8 162.39 38.4 161.38 38.13C160.38 37.87 159.35 37.73 158.31 37.73C157.27 37.73 156.24 37.87 155.24 38.13C154.23 38.4 153.27 38.8 152.37 39.32C152 39.54 151.65 39.8 151.35 40.1C151.04 40.41 150.78 40.75 150.56 41.12C150.35 41.5 150.18 41.9 150.07 42.31C149.96 42.73 149.9 43.16 149.9 43.59L149.9 52.3C149.9 52.73 149.96 53.16 150.07 53.57C150.19 53.99 150.35 54.39 150.57 54.76C150.78 55.13 151.04 55.48 151.35 55.78C151.65 56.09 151.99 56.35 152.36 56.57L152.42 56.57C153.32 57.09 154.28 57.48 155.28 57.75C156.29 58.02 157.32 58.16 158.35 58.16C159.39 58.16 160.42 58.02 161.43 57.75C162.43 57.48 163.39 57.09 164.29 56.57C164.66 56.36 165 56.09 165.31 55.79C165.61 55.48 165.88 55.14 166.09 54.77C166.31 54.4 166.47 54 166.58 53.58C166.69 53.17 166.75 52.74 166.75 52.31L166.71 43.58Z" />
			<path id="Layer" fill-rule="evenodd" class="shp0" d="M242.42 32.18C243.42 32.76 244.33 33.47 245.15 34.28C245.96 35.1 246.67 36.02 247.24 37.02C247.82 38.02 248.26 39.09 248.55 40.2C248.85 41.32 249 42.47 249 43.62L249 51.62L223.87 51.62L223.87 52.31C223.87 52.74 223.93 53.17 224.05 53.58C224.16 54 224.33 54.4 224.54 54.77C224.76 55.14 225.02 55.49 225.32 55.79C225.63 56.1 225.97 56.36 226.34 56.58L226.4 56.58C227.3 57.1 228.26 57.49 229.26 57.76C230.27 58.03 231.3 58.17 232.33 58.17C233.37 58.17 234.4 58.03 235.41 57.76C236.41 57.49 237.37 57.1 238.27 56.58C238.53 56.43 238.77 56.26 239 56.06C239.23 55.87 239.44 55.66 239.63 55.43C239.81 55.19 239.98 54.95 240.13 54.69C240.27 54.43 240.39 54.15 240.49 53.87L248.32 56.5C248.07 57.25 247.75 57.99 247.36 58.68C246.98 59.38 246.53 60.04 246.03 60.66C245.52 61.27 244.96 61.84 244.36 62.36C243.75 62.87 243.1 63.33 242.41 63.73C240.88 64.61 239.25 65.28 237.55 65.73C235.84 66.19 234.09 66.42 232.33 66.42C230.57 66.42 228.82 66.19 227.11 65.73C225.41 65.28 223.78 64.61 222.25 63.73L222.18 63.73C221.19 63.15 220.27 62.45 219.46 61.63C218.65 60.82 217.95 59.9 217.37 58.9C216.8 57.91 216.36 56.84 216.06 55.73C215.76 54.62 215.61 53.47 215.61 52.32L215.61 43.6C215.61 42.45 215.76 41.3 216.06 40.19C216.36 39.08 216.8 38.01 217.38 37.01C217.96 36.01 218.66 35.09 219.47 34.28C220.29 33.46 221.2 32.76 222.2 32.18C223.73 31.3 225.36 30.63 227.06 30.18C228.77 29.72 230.52 29.49 232.28 29.49C234.04 29.49 235.79 29.72 237.5 30.18C239.2 30.63 240.83 31.3 242.36 32.18L242.42 32.18ZM240.7 43.36C240.68 42.95 240.6 42.55 240.48 42.16C240.36 41.77 240.19 41.4 239.98 41.05C239.76 40.7 239.51 40.38 239.21 40.1C238.92 39.81 238.59 39.56 238.24 39.36L238.18 39.36C237.28 38.84 236.32 38.45 235.32 38.18C234.31 37.91 233.28 37.77 232.25 37.77C231.21 37.77 230.18 37.91 229.17 38.18C228.17 38.45 227.21 38.84 226.31 39.36C225.96 39.56 225.63 39.81 225.33 40.09C225.04 40.38 224.78 40.7 224.57 41.05C224.35 41.39 224.18 41.77 224.06 42.16C223.94 42.55 223.86 42.95 223.84 43.36L240.7 43.36Z" />
			<path id="Layer" fill-rule="evenodd" class="shp0" d="M352.2 32.17C353.2 32.75 354.11 33.45 354.93 34.27C355.74 35.09 356.44 36 357.02 37C357.59 38 358.04 39.07 358.34 40.18C358.63 41.29 358.79 42.44 358.79 43.59L358.79 52.31C358.79 53.46 358.64 54.61 358.34 55.72C358.04 56.83 357.59 57.9 357.02 58.9C356.44 59.9 355.74 60.82 354.93 61.63C354.11 62.45 353.2 63.15 352.2 63.73L352.15 63.73C350.62 64.61 348.99 65.28 347.29 65.74C345.59 66.19 343.84 66.42 342.07 66.42C340.31 66.42 338.56 66.19 336.86 65.74C335.16 65.28 333.53 64.61 332 63.73C331 63.16 330.08 62.45 329.26 61.64C328.44 60.82 327.73 59.91 327.15 58.91C326.57 57.91 326.12 56.84 325.82 55.73C325.52 54.61 325.36 53.46 325.36 52.31L325.36 43.59C325.36 42.44 325.52 41.29 325.81 40.18C326.11 39.07 326.56 38 327.13 37C327.71 36 328.41 35.09 329.22 34.27C330.04 33.45 330.95 32.75 331.95 32.17L332 32.17C333.53 31.29 335.16 30.62 336.86 30.17C338.56 29.71 340.31 29.48 342.07 29.48C343.84 29.48 345.59 29.71 347.29 30.17C348.99 30.62 350.62 31.29 352.15 32.17L352.2 32.17ZM350.53 43.59C350.53 43.16 350.47 42.73 350.36 42.32C350.25 41.9 350.09 41.5 349.87 41.13C349.66 40.76 349.39 40.42 349.09 40.11C348.78 39.81 348.44 39.54 348.07 39.33L348.02 39.33C347.12 38.81 346.16 38.41 345.15 38.14C344.15 37.88 343.11 37.74 342.07 37.74C341.04 37.74 340 37.88 339 38.14C337.99 38.41 337.03 38.81 336.13 39.33L336.08 39.33C335.71 39.55 335.37 39.81 335.06 40.11C334.76 40.42 334.5 40.76 334.28 41.13C334.07 41.5 333.9 41.9 333.79 42.32C333.68 42.73 333.62 43.16 333.62 43.59L333.62 52.3C333.62 52.73 333.68 53.16 333.79 53.57C333.91 53.99 334.07 54.39 334.29 54.76C334.5 55.13 334.76 55.48 335.07 55.78C335.37 56.09 335.71 56.35 336.08 56.57L336.13 56.57C337.03 57.09 337.99 57.49 339 57.76C340 58.02 341.04 58.16 342.07 58.16C343.11 58.16 344.15 58.02 345.15 57.76C346.16 57.49 347.12 57.09 348.02 56.57L348.07 56.57C348.44 56.36 348.78 56.09 349.09 55.79C349.39 55.48 349.66 55.14 349.87 54.77C350.09 54.4 350.25 54 350.36 53.58C350.47 53.17 350.53 52.74 350.53 52.31L350.53 43.59Z" />
			<path id="Layer" fill-rule="evenodd" class="shp0" d="M129.56 16.68C130.62 17.3 131.6 18.05 132.46 18.92C133.33 19.78 134.07 20.76 134.69 21.83C135.3 22.89 135.77 24.02 136.09 25.21C136.41 26.39 136.57 27.61 136.57 28.84L136.57 38.67C136.57 39.9 136.41 41.12 136.09 42.3C135.77 43.49 135.3 44.62 134.69 45.69C134.08 46.75 133.33 47.73 132.47 48.6C131.6 49.47 130.63 50.22 129.57 50.84L129 51.16C127.47 52.05 125.83 52.74 124.12 53.21C122.41 53.68 120.65 53.94 118.88 53.96C117.11 53.99 115.34 53.8 113.62 53.38C111.89 52.96 110.23 52.33 108.67 51.49L108.67 65.65L100.42 65.65L100.42 28.84C100.42 27.61 100.58 26.39 100.9 25.21C101.22 24.03 101.69 22.89 102.3 21.83C102.91 20.76 103.66 19.79 104.52 18.92C105.39 18.05 106.36 17.3 107.42 16.68L107.99 16.35C109.58 15.43 111.28 14.73 113.06 14.26C114.83 13.78 116.66 13.54 118.49 13.54C120.32 13.54 122.15 13.78 123.92 14.26C125.7 14.73 127.4 15.43 128.99 16.35L129.56 16.68ZM128.33 28.84C128.33 28.34 128.26 27.83 128.13 27.35C128 26.86 127.8 26.39 127.55 25.95C127.29 25.52 126.98 25.11 126.63 24.76C126.27 24.4 125.87 24.09 125.43 23.84L124.86 23.51C123.9 22.96 122.86 22.53 121.79 22.24C120.71 21.95 119.6 21.81 118.49 21.81C117.38 21.81 116.27 21.95 115.19 22.24C114.12 22.53 113.08 22.96 112.12 23.51L111.55 23.84C111.11 24.09 110.71 24.4 110.35 24.76C110 25.11 109.69 25.52 109.43 25.95C109.18 26.39 108.98 26.86 108.85 27.35C108.72 27.83 108.65 28.34 108.65 28.84L108.65 38.68C108.65 39.18 108.72 39.69 108.85 40.17C108.98 40.66 109.18 41.13 109.43 41.57C109.69 42 110 42.41 110.35 42.76C110.71 43.12 111.11 43.43 111.55 43.68L112.12 44.01C113.09 44.57 114.12 44.99 115.2 45.28C116.27 45.57 117.38 45.71 118.5 45.71C119.61 45.71 120.72 45.57 121.79 45.28C122.87 44.99 123.9 44.57 124.87 44.01L125.43 43.68C125.87 43.43 126.27 43.12 126.63 42.76C126.98 42.41 127.29 42 127.55 41.57C127.8 41.13 128 40.66 128.13 40.17C128.26 39.69 128.33 39.18 128.33 38.68L128.33 28.84Z" />
			<path id="Layer" class="shp0" d="M304.46 30.08C303.2 30.81 302.03 31.71 301 32.74C299.97 33.77 299.08 34.94 298.35 36.2C297.62 37.46 297.06 38.82 296.68 40.23C296.3 41.64 296.1 43.09 296.1 44.55L296.1 65.49L304.36 65.49L304.36 44.55C304.37 43.07 304.76 41.62 305.5 40.34C306.24 39.07 307.3 38 308.58 37.26C309.86 36.52 311.31 36.13 312.79 36.13C314.26 36.12 315.72 36.5 317 37.23L319.37 38.6L323.49 31.44L321.13 30.08C319.87 29.35 318.52 28.8 317.11 28.42C315.7 28.05 314.25 27.86 312.79 27.86C311.34 27.86 309.89 28.05 308.48 28.42C307.07 28.8 305.72 29.35 304.46 30.08L304.46 30.08Z" />
			<path id="Layer" class="shp0" d="M190.19 55.78L190.19 13.13L181.94 13.13L181.94 55.78C181.94 57.08 182.2 58.37 182.7 59.57C183.2 60.77 183.93 61.87 184.84 62.79C185.76 63.71 186.86 64.44 188.06 64.94C189.26 65.44 190.55 65.7 191.85 65.7L194 65.7L194 57.44L191.82 57.44C191.6 57.44 191.39 57.39 191.19 57.31C191 57.22 190.82 57.1 190.67 56.94C190.51 56.79 190.39 56.61 190.31 56.41C190.23 56.21 190.19 56 190.19 55.78Z" />
			<path id="Layer" class="shp0" d="M200.86 28.48L209.12 28.48L209.12 65.94L200.86 65.94L200.86 28.48Z" />
			<path id="Layer" fill-rule="evenodd" class="shp0" d="M280.55 13.41L288.81 13.41L288.81 42.59L288.75 42.59C288.81 42.95 288.81 43.26 288.81 43.59L288.81 52.3C288.81 53.45 288.66 54.6 288.36 55.71C288.06 56.82 287.61 57.89 287.04 58.89C286.46 59.89 285.76 60.81 284.95 61.62C284.13 62.44 283.22 63.14 282.22 63.72C280.69 64.6 279.06 65.27 277.36 65.72C275.65 66.18 273.9 66.41 272.14 66.41C270.38 66.41 268.63 66.18 266.92 65.72C265.22 65.27 263.59 64.6 262.06 63.72L262 63.72C261.01 63.14 260.1 62.43 259.29 61.61C258.48 60.79 257.78 59.87 257.21 58.88C256.64 57.88 256.2 56.81 255.91 55.7C255.62 54.59 255.47 53.44 255.47 52.29L255.47 43.57C255.47 42.42 255.63 41.27 255.93 40.16C256.22 39.05 256.67 37.98 257.25 36.98C257.82 35.98 258.53 35.06 259.34 34.25C260.16 33.43 261.07 32.73 262.07 32.15C263.47 31.35 264.95 30.72 266.5 30.27C268.04 29.82 269.64 29.56 271.24 29.49C272.85 29.42 274.46 29.55 276.04 29.86C277.62 30.17 279.15 30.67 280.61 31.35L280.55 13.41ZM280.62 43.58C280.62 43.15 280.56 42.72 280.45 42.31C280.34 41.89 280.18 41.49 279.96 41.12C279.75 40.75 279.48 40.41 279.18 40.1C278.87 39.8 278.53 39.53 278.16 39.32L278.1 39.32C277.2 38.8 276.24 38.41 275.23 38.14C274.23 37.87 273.2 37.73 272.16 37.73C271.12 37.73 270.09 37.87 269.09 38.14C268.08 38.41 267.12 38.8 266.22 39.32C265.85 39.54 265.51 39.8 265.2 40.11C264.9 40.41 264.63 40.75 264.42 41.13C264.2 41.5 264.03 41.9 263.92 42.31C263.8 42.73 263.74 43.16 263.74 43.59L263.74 52.35C263.74 52.78 263.8 53.21 263.92 53.62C264.03 54.04 264.2 54.44 264.41 54.81C264.63 55.18 264.89 55.53 265.19 55.83C265.5 56.14 265.84 56.4 266.21 56.62L266.27 56.62C267.17 57.14 268.13 57.53 269.13 57.8C270.14 58.07 271.17 58.21 272.2 58.21C273.24 58.21 274.27 58.07 275.28 57.8C276.28 57.53 277.24 57.14 278.14 56.62C278.51 56.4 278.86 56.14 279.16 55.84C279.47 55.53 279.73 55.19 279.95 54.82C280.16 54.44 280.33 54.04 280.44 53.63C280.55 53.21 280.61 52.78 280.61 52.35L280.62 43.58Z" />
			<path id="Layer" class="shp0" d="M205.17 13.13C203.26 13.13 201.59 14.41 201.09 16.25C200.59 18.1 201.4 20.05 203.05 21C204.71 21.96 206.8 21.69 208.15 20.33C209.5 18.98 209.78 16.89 208.82 15.24C208.64 14.92 208.41 14.63 208.15 14.37C207.89 14.11 207.6 13.88 207.28 13.7C206.96 13.51 206.62 13.37 206.26 13.27C205.91 13.18 205.54 13.13 205.17 13.13L205.17 13.13Z" />
		</g>
	</g>
</svg>