<svg width="177" height="55" viewBox="0 0 177 55" fill="none" xmlns="http://www.w3.org/2000/svg">
<g clip-path="url(#clip0_25_210)">
<path d="M34.907 33.5974L18.2867 43.2207V23.9049C18.2867 23.8406 18.2818 23.7763 18.2818 23.712C18.2769 23.6477 18.2719 23.5834 18.2621 23.5191C18.2571 23.4548 18.2473 23.3906 18.2423 23.3263C18.2325 23.262 18.2177 23.1977 18.2078 23.1334C18.2078 23.0691 18.2078 23.0098 18.1733 22.9504C18.1585 22.8911 18.1437 22.8268 18.1289 22.7675C18.1142 22.7081 18.0944 22.6488 18.0747 22.5845C18.055 22.5252 18.0353 22.4658 18.0155 22.4065C17.9909 22.3521 17.9712 22.2927 17.9465 22.2334C17.9416 22.2284 17.9416 22.2185 17.9367 22.2136C17.9367 22.2087 17.9317 22.2037 17.9268 22.1938C17.9268 22.1889 17.9219 22.1839 17.9169 22.179C17.9169 22.1691 17.912 22.1642 17.9071 22.1592C17.8824 22.1048 17.8578 22.0554 17.8331 22.001C17.8085 21.9515 17.7789 21.8971 17.7542 21.8477C17.7247 21.7982 17.6951 21.7488 17.6704 21.6993C17.6408 21.6499 17.6063 21.6004 17.5767 21.551C17.5422 21.5015 17.5126 21.452 17.4781 21.4075C17.4436 21.3581 17.4042 21.3037 17.3647 21.2542C17.3253 21.2048 17.2859 21.1603 17.2415 21.1108C17.202 21.0614 17.1626 21.0169 17.1182 20.9674C17.0738 20.9229 17.0295 20.8784 16.9851 20.8339V20.8042L35.2274 9.79133C35.3113 9.85562 35.4 9.91496 35.4789 9.98419C35.5578 10.0534 35.6465 10.1326 35.7254 10.2166C35.755 10.2512 35.7846 10.2809 35.8092 10.3155C35.8388 10.3501 35.8635 10.3848 35.8881 10.4194C35.9177 10.454 35.9423 10.4886 35.967 10.5232C35.9916 10.5578 36.0163 10.5974 36.0409 10.632C36.1001 10.721 36.1642 10.8051 36.2135 10.8941C36.2332 10.9386 36.253 10.9782 36.2677 11.0227C36.2875 11.0672 36.3023 11.1117 36.3171 11.1562C36.3318 11.2007 36.3466 11.2452 36.3614 11.2897C36.3762 11.3392 36.391 11.3837 36.4009 11.4282C36.4304 11.5123 36.4699 11.5914 36.4945 11.6804C36.5143 11.7496 36.5291 11.8189 36.5389 11.8881C36.5537 11.9573 36.5636 12.0315 36.5734 12.1007C36.5833 12.17 36.5931 12.2392 36.5931 12.3134C36.5981 12.3826 36.603 12.4568 36.603 12.526V30.6451C36.603 30.9418 36.5636 31.2385 36.4847 31.5254C36.4107 31.8122 36.2924 32.0891 36.1445 32.3463C35.9966 32.6034 35.8191 32.8408 35.6071 33.0534C35.4 33.2661 35.1633 33.449 34.907 33.5974ZM0 10.3056C0 10.2315 0.00493036 10.1573 0.0246518 10.0831C0.0443733 10.0089 0.0739554 9.93969 0.108468 9.8754C0.147911 9.80617 0.192284 9.74683 0.246518 9.69738C0.300752 9.64298 0.359916 9.59847 0.424011 9.55891L15.861 0.509247C16.1174 0.360891 16.3935 0.247152 16.6794 0.16803C16.9654 0.0938521 17.2612 0.0542908 17.557 0.0542908C17.8578 0.0542908 18.1536 0.0938521 18.4396 0.16803C18.7255 0.247152 19.0016 0.360891 19.258 0.509247L33.9603 9.02483L15.8166 19.9883L0.428942 11.0425C0.364847 11.0078 0.305682 10.9633 0.251448 10.9089C0.197214 10.8595 0.152841 10.8001 0.113398 10.7359C0.0739554 10.6666 0.0443733 10.5974 0.0295822 10.5282C0.00986072 10.454 0 10.3798 0 10.3056ZM16.995 53.6402C16.995 53.7885 16.9555 53.9369 16.8816 54.0655C16.8076 54.199 16.6991 54.3078 16.5709 54.3819C16.4378 54.4561 16.2948 54.4957 16.142 54.4957C15.9941 54.4907 15.8462 54.4512 15.718 54.377L1.17836 45.9702C1.00086 45.8664 0.838162 45.7427 0.695181 45.5944C0.54727 45.451 0.424011 45.2878 0.320474 45.1097C0.216936 44.9317 0.13805 44.7438 0.0838162 44.546C0.0295822 44.3482 0 44.1454 0 43.9377V25.1461C0 25.0719 0.00986072 24.9977 0.0295822 24.9236C0.0443733 24.8543 0.0739554 24.7801 0.113398 24.7159C0.147911 24.6516 0.192284 24.5922 0.246518 24.5378C0.300752 24.4884 0.359916 24.4439 0.424011 24.4043C0.458524 24.3845 0.488106 24.3697 0.522618 24.3549C0.557131 24.34 0.596574 24.3301 0.631086 24.3202C0.665599 24.3104 0.705042 24.3005 0.739554 24.2955C0.778997 24.2906 0.81351 24.2856 0.852953 24.2856C0.892396 24.2856 0.926908 24.2906 0.961421 24.2955C1.00086 24.3005 1.03538 24.3104 1.07482 24.3202C1.10933 24.3301 1.14384 24.34 1.17836 24.3549C1.21287 24.3697 1.24245 24.3845 1.27696 24.4043L15.8215 32.8408C15.999 32.9446 16.1617 33.0683 16.3047 33.2166C16.4526 33.365 16.5759 33.5282 16.6794 33.7062C16.783 33.8842 16.8618 34.0721 16.9161 34.2749C16.9654 34.4727 16.995 34.6754 16.995 34.8831V53.6748V53.6402Z" fill="white"/>
<path d="M50.4721 46.3361H52.6168C52.6612 47.3548 53.2085 48.1856 54.7911 48.1856C56.1371 48.1856 56.6646 47.7307 56.6646 46.9444C56.6646 45.0356 50.6841 46.3658 50.6841 42.8399C50.6841 41.2921 51.7096 39.9915 54.6284 39.9915C57.6606 39.9915 58.6121 41.475 58.6417 43.4135H56.5118C56.3935 42.4245 56.0582 41.7767 54.5397 41.7767C53.1345 41.7767 52.8042 42.2712 52.8042 42.7657C52.8042 44.7438 58.7551 43.191 58.7551 46.8752C58.7551 48.2994 57.8479 49.9164 54.8453 49.9164C51.68 49.9263 50.4869 48.6109 50.4721 46.3361Z" fill="white"/>
<path d="M60.042 39.7344C60.042 38.869 60.5991 38.6613 61.3682 38.6613C62.1374 38.6613 62.6698 38.869 62.6698 39.7344C62.6698 40.5998 62.1374 40.7926 61.3682 40.7926C60.5991 40.7926 60.042 40.6047 60.042 39.7344ZM60.3279 42.0536H62.4135V49.8077H60.3279V42.0536Z" fill="white"/>
<path d="M63.5474 47.0779H65.5738C65.5738 47.884 66.195 48.3241 67.2945 48.3241C68.2461 48.3241 68.7736 47.9878 68.7736 47.5329C68.7736 46.1087 63.6953 47.1274 63.6953 44.3828C63.6953 42.7657 64.923 41.9102 67.1466 41.9102C69.3702 41.9102 70.5978 42.8498 70.5978 44.6498H68.6651C68.5764 43.8191 68.1721 43.4877 67.0924 43.4877C66.0126 43.4877 65.7365 43.8636 65.7365 44.2592C65.7365 45.6191 70.8246 44.4867 70.8246 47.4241C70.8246 48.9076 69.4343 49.8967 67.3734 49.8967C64.8145 49.9263 63.5474 49.0115 63.5474 47.0779Z" fill="white"/>
<path d="M72.6588 47.2312V43.7449H71.5248V42.7163L72.6588 42.0833V40.1102H74.7098V42.0487H76.7066V43.7399H74.7739V47.2015C74.7739 48.0669 75.2669 48.2746 76.7066 48.1906V49.8868C73.9554 50.1093 72.6588 49.6247 72.6588 47.2312Z" fill="white"/>
<path fill-rule="evenodd" clip-rule="evenodd" d="M77.239 45.9306C77.239 43.9921 77.9342 41.93 81.0601 41.93C84.0183 41.93 84.8219 44.2938 84.5951 46.7466H79.3788C79.3739 46.9642 79.4133 47.1768 79.4972 47.3796C79.581 47.5774 79.7042 47.7603 79.8571 47.9087C80.0148 48.0571 80.2022 48.1708 80.4043 48.24C80.6114 48.3142 80.8234 48.3439 81.0403 48.3241C81.9771 48.3241 82.2927 47.9137 82.4406 47.4587H84.6346C84.4965 48.7593 83.6041 49.9313 81.1143 49.9313C77.8997 49.9263 77.239 47.9285 77.239 45.9306ZM82.4504 45.1542C82.4652 44.9465 82.4356 44.7339 82.3617 44.5361C82.2877 44.3383 82.1743 44.1603 82.0264 44.0119C81.8785 43.8586 81.701 43.7449 81.5087 43.6707C81.3115 43.5916 81.0995 43.5619 80.8924 43.5718C79.8719 43.5718 79.3788 44.2641 79.3788 45.1542H82.4504Z" fill="white"/>
<path d="M85.8968 42.0536H86.7744L87.2674 43.3246C87.3857 43.0971 87.5386 42.8943 87.7161 42.7114C87.8936 42.5284 88.0957 42.3751 88.3176 42.2515C88.5444 42.1278 88.781 42.0388 89.0275 41.9844C89.279 41.93 89.5354 41.9102 89.7868 41.93C89.9988 41.9102 90.2158 41.9251 90.4228 41.9696C90.6348 42.0141 90.837 42.0883 91.0243 42.1872C91.2117 42.291 91.3843 42.4146 91.5371 42.5679C91.6899 42.7163 91.8181 42.8894 91.9217 43.0773C92.183 42.5828 92.7993 41.9251 94.2192 41.9251C96.3343 41.9251 96.7879 43.4531 96.7879 45.1839V49.8027H94.6876V45.0554C94.6876 44.3136 94.52 43.6905 93.5536 43.6905C92.5873 43.6905 92.39 44.2988 92.39 45.0554V49.8126H90.2946V45.0554C90.2946 44.3136 90.127 43.6905 89.1607 43.6905C88.1943 43.6905 87.9675 44.3284 87.9675 45.085V49.8126H85.8968V42.0536Z" fill="white"/>
<path fill-rule="evenodd" clip-rule="evenodd" d="M97.8677 47.5279C97.8677 46.0444 98.8537 45.4213 101.102 45.2284L103.153 45.0455C103.153 44.18 102.744 43.5619 101.6 43.5619C100.456 43.5619 100.18 44.0564 100.18 44.818H98.1241C98.1241 43.2256 98.7749 41.9399 101.551 41.9399C104.77 41.9399 105.224 43.3641 105.224 45.4015V49.7928H104.346L103.878 48.5516C103.424 49.2637 102.517 49.9115 100.949 49.9115C99.2285 49.9263 97.8677 49.1697 97.8677 47.5279ZM103.153 46.4153C103.153 46.4252 103.153 46.4301 103.153 46.44V46.4153ZM101.418 46.6329C100.343 46.7416 100.027 47.0136 100.027 47.4241C100.027 47.9532 100.436 48.334 101.447 48.334C102.719 48.3093 103.133 47.4439 103.153 46.44L101.418 46.6329Z" fill="white"/>
<path fill-rule="evenodd" clip-rule="evenodd" d="M109.765 45.9307C109.765 43.8685 110.593 41.93 113.038 41.93C114.355 41.93 115.011 42.4245 115.351 42.919V39.1212H117.417V49.8324H116.544L116.076 48.5912C115.582 49.3626 114.808 49.9511 113.083 49.9511C110.652 49.9264 109.765 47.973 109.765 45.9307ZM113.689 43.6855C112.21 43.6855 111.875 44.5955 111.875 45.9307C111.875 47.2659 112.254 48.2005 113.674 48.2005C115.094 48.2005 115.395 47.2906 115.395 45.9307C115.395 44.64 115.168 43.6855 113.689 43.6855Z" fill="white"/>
<path fill-rule="evenodd" clip-rule="evenodd" d="M118.694 45.9306C118.694 43.9921 119.389 41.93 122.515 41.93C125.473 41.93 126.276 44.2938 126.05 46.7466H120.794C120.789 46.9642 120.828 47.1768 120.912 47.3746C120.996 47.5774 121.119 47.7554 121.277 47.9038C121.435 48.0521 121.617 48.1659 121.819 48.24C122.026 48.3142 122.238 48.3389 122.455 48.3241C123.392 48.3241 123.708 47.9137 123.861 47.4587H126.05C125.912 48.7593 125.024 49.9313 122.529 49.9313C119.374 49.9263 118.694 47.9285 118.694 45.9306ZM123.905 45.1542C123.925 44.9416 123.895 44.7339 123.826 44.5312C123.757 44.3333 123.644 44.1504 123.496 44.002C123.348 43.8487 123.165 43.735 122.968 43.6608C122.771 43.5866 122.564 43.557 122.352 43.5718C121.307 43.5718 120.873 44.2839 120.809 45.174L123.905 45.1542Z" fill="white"/>
<path d="M130.965 40.1102H137.809V41.8954H133.12V43.9872H137.365V45.7279H133.12V48.0224H137.833V49.8126H130.965V40.1102Z" fill="white"/>
<path d="M139.278 42.0536H140.141L140.634 43.2652C141.161 42.4591 141.856 41.93 143.547 41.93C146.013 41.93 146.506 43.4135 146.506 45.5795V49.8077H144.46V45.4163C144.46 44.3086 144.233 43.6707 142.946 43.6707C141.659 43.6707 141.363 44.3383 141.363 45.4608V49.8077H139.293L139.278 42.0536Z" fill="white"/>
<path d="M147.576 47.0779H149.612C149.612 47.884 150.233 48.3241 151.337 48.3241C152.289 48.3241 152.817 47.9878 152.817 47.5329C152.817 46.1087 147.743 47.1274 147.743 44.3828C147.743 42.7657 148.966 41.9102 151.195 41.9102C153.423 41.9102 154.646 42.8498 154.646 44.6498H152.693C152.605 43.8191 152.225 43.4877 151.125 43.4877C150.026 43.4877 149.765 43.8636 149.765 44.2592C149.765 45.6191 154.853 44.4867 154.853 47.4241C154.853 48.9076 153.467 49.8967 151.402 49.8967C148.843 49.9263 147.576 49.0115 147.576 47.0779Z" fill="white"/>
<path d="M155.75 39.7344C155.75 38.869 156.312 38.6613 157.081 38.6613C157.85 38.6613 158.378 38.869 158.378 39.7344C158.378 40.5998 157.85 40.7926 157.081 40.7926C156.312 40.7926 155.75 40.6047 155.75 39.7344ZM156.041 42.0536H158.122V49.8077H156.041V42.0536Z" fill="white"/>
<path d="M159.68 42.0536H160.542L161.035 43.2652C161.563 42.4591 162.258 41.93 163.949 41.93C166.414 41.93 166.908 43.4135 166.908 45.5795V49.8077H164.842V45.4163C164.842 44.3086 164.615 43.6707 163.328 43.6707C162.041 43.6707 161.745 44.3383 161.745 45.4608V49.8077H159.675L159.68 42.0536Z" fill="white"/>
<path fill-rule="evenodd" clip-rule="evenodd" d="M168.007 45.9158C168.007 43.8685 168.855 41.93 171.858 41.93C174.86 41.93 175.708 43.8685 175.708 45.9158C175.708 47.9631 174.836 49.9263 171.828 49.9263C168.821 49.9263 168.007 47.973 168.007 45.9158ZM173.672 45.9158C173.672 44.6845 173.307 43.6855 171.858 43.6855C170.408 43.6855 170.048 44.6399 170.048 45.9158C170.048 47.1917 170.438 48.156 171.828 48.156C173.218 48.156 173.672 47.2164 173.672 45.9158Z" fill="white"/>
<path fill-rule="evenodd" clip-rule="evenodd" d="M83.0372 15.9629C83.5302 16.2497 83.9789 16.5959 84.3782 17.0014C84.7825 17.4069 85.1276 17.8569 85.4087 18.3514C85.6946 18.8459 85.9116 19.3751 86.0595 19.924C86.2074 20.4729 86.2813 21.0416 86.2813 21.6103V25.9225C86.2813 26.4912 86.2074 27.0549 86.0595 27.6038C85.9165 28.1528 85.6996 28.6819 85.4185 29.1764C85.1326 29.6709 84.7874 30.1209 84.3881 30.5264C83.9937 30.927 83.5401 31.2781 83.052 31.5649C82.2976 32.0001 81.494 32.3314 80.6558 32.5589C79.8176 32.7814 78.9548 32.8952 78.0871 32.8952C77.2193 32.8952 76.3565 32.7814 75.5184 32.5589C74.6802 32.3314 73.8766 32.0001 73.1222 31.5649H73.0926C72.5996 31.2781 72.1509 30.9319 71.7466 30.5264C71.3473 30.1259 71.0022 29.6709 70.7162 29.1814C70.4352 28.6868 70.2182 28.1577 70.0703 27.6088C69.9224 27.0599 69.8484 26.4912 69.8484 25.9225V21.6103C69.8484 21.0416 69.9224 20.4729 70.0703 19.924C70.2182 19.3751 70.4352 18.8459 70.7211 18.3514C71.0071 17.8569 71.3522 17.402 71.7516 17.0014C72.1559 16.5959 72.6045 16.2497 73.0976 15.9629C73.8519 15.5277 74.6556 15.1964 75.4937 14.9739C76.3368 14.7464 77.1996 14.6327 78.0674 14.6327C78.9351 14.6327 79.7979 14.7464 80.641 14.9739C81.4792 15.1964 82.2828 15.5277 83.0372 15.9629ZM82.1941 21.6054C82.1941 21.3927 82.1645 21.1801 82.1103 20.9773C82.056 20.7696 81.9771 20.5718 81.8687 20.3888C81.7651 20.2059 81.632 20.0377 81.4841 19.8844C81.3313 19.7361 81.1636 19.6026 80.9812 19.4987C80.5375 19.2416 80.0642 19.0438 79.5662 18.9102C79.0732 18.7817 78.5653 18.7124 78.0526 18.7124C77.5398 18.7124 77.032 18.7817 76.539 18.9102C76.041 19.0438 75.5677 19.2416 75.1239 19.4987C74.9415 19.6075 74.769 19.7361 74.621 19.8844C74.4682 20.0377 74.34 20.2059 74.2315 20.3888C74.128 20.5768 74.0442 20.7746 73.99 20.9773C73.9357 21.185 73.9061 21.3977 73.9061 21.6103V25.9175C73.9061 26.1302 73.9357 26.3428 73.99 26.5456C74.0491 26.7533 74.128 26.9511 74.2365 27.1341C74.34 27.317 74.4682 27.4901 74.621 27.6385C74.769 27.7918 74.9366 27.9203 75.119 28.0291H75.1486C75.5923 28.2863 76.0656 28.4791 76.5587 28.6127C77.0566 28.7462 77.5645 28.8154 78.0723 28.8154C78.5851 28.8154 79.0929 28.7462 79.5908 28.6127C80.0839 28.4791 80.5572 28.2863 81.0009 28.0291C81.1833 27.9253 81.351 27.7918 81.5038 27.6434C81.6517 27.4901 81.7849 27.322 81.8884 27.139C81.9969 26.956 82.0757 26.7582 82.13 26.5505C82.1842 26.3478 82.2138 26.1351 82.2138 25.9225L82.1941 21.6054Z" fill="white"/>
<path fill-rule="evenodd" clip-rule="evenodd" d="M119.522 15.9679C120.015 16.2547 120.464 16.6058 120.868 17.0063C121.267 17.4118 121.617 17.8668 121.898 18.3613C122.184 18.8558 122.401 19.385 122.544 19.9339C122.692 20.4877 122.766 21.0564 122.766 21.6251V25.5813H110.376V25.9225C110.376 26.1351 110.406 26.3478 110.465 26.5505C110.519 26.7582 110.603 26.956 110.706 27.139C110.815 27.322 110.943 27.495 111.091 27.6434C111.244 27.7967 111.411 27.9253 111.594 28.0341H111.623C112.067 28.2912 112.54 28.4841 113.033 28.6176C113.531 28.7511 114.039 28.8204 114.547 28.8204C115.06 28.8204 115.568 28.7511 116.066 28.6176C116.559 28.4841 117.032 28.2912 117.476 28.0341C117.604 27.9599 117.722 27.8758 117.836 27.7769C117.949 27.683 118.053 27.5791 118.146 27.4654C118.235 27.3467 118.319 27.228 118.393 27.0994C118.462 26.9709 118.521 26.8324 118.57 26.6939L122.431 27.9945C122.307 28.3654 122.15 28.7313 121.957 29.0726C121.77 29.4187 121.548 29.7451 121.302 30.0517C121.05 30.3534 120.774 30.6352 120.478 30.8924C120.178 31.1446 119.857 31.3721 119.517 31.5699C118.763 32.005 117.959 32.3364 117.121 32.5589C116.278 32.7864 115.415 32.9001 114.547 32.9001C113.679 32.9001 112.817 32.7864 111.973 32.5589C111.135 32.3364 110.332 32.005 109.577 31.5699H109.543C109.055 31.283 108.601 30.9369 108.202 30.5314C107.802 30.1308 107.457 29.6759 107.171 29.1814C106.89 28.6918 106.673 28.1626 106.525 27.6137C106.377 27.0648 106.304 26.4961 106.304 25.9274V21.6152C106.304 21.0465 106.377 20.4778 106.525 19.9289C106.673 19.38 106.89 18.8509 107.176 18.3564C107.462 17.8619 107.807 17.4069 108.207 17.0063C108.611 16.6008 109.06 16.2547 109.553 15.9679C110.307 15.5327 111.111 15.2014 111.949 14.9788C112.792 14.7513 113.655 14.6376 114.522 14.6376C115.39 14.6376 116.253 14.7513 117.096 14.9788C117.934 15.2014 118.738 15.5327 119.492 15.9679H119.522ZM118.674 21.4966C118.664 21.2938 118.625 21.096 118.565 20.9031C118.506 20.7103 118.422 20.5273 118.319 20.3542C118.21 20.1811 118.087 20.0229 117.939 19.8844C117.796 19.741 117.634 19.6174 117.461 19.5185H117.431C116.988 19.2613 116.514 19.0685 116.021 18.935C115.523 18.8014 115.015 18.7322 114.508 18.7322C113.995 18.7322 113.487 18.8014 112.989 18.935C112.496 19.0685 112.023 19.2613 111.579 19.5185C111.406 19.6174 111.244 19.741 111.096 19.8795C110.953 20.0229 110.825 20.1811 110.721 20.3542C110.613 20.5224 110.529 20.7103 110.47 20.9031C110.411 21.096 110.371 21.2938 110.361 21.4966H118.674Z" fill="white"/>
<path fill-rule="evenodd" clip-rule="evenodd" d="M173.647 15.9629C174.14 16.2497 174.589 16.5959 174.993 17.0014C175.393 17.4069 175.738 17.8569 176.024 18.3514C176.305 18.8459 176.527 19.3751 176.675 19.924C176.818 20.4729 176.896 21.0416 176.896 21.6103V25.9225C176.896 26.4912 176.822 27.0599 176.675 27.6088C176.527 28.1577 176.305 28.6868 176.024 29.1814C175.738 29.6759 175.393 30.1308 174.993 30.5314C174.589 30.9369 174.14 31.2831 173.647 31.5699H173.623C172.868 32.005 172.065 32.3364 171.227 32.5639C170.388 32.7864 169.526 32.9001 168.653 32.9001C167.785 32.9001 166.922 32.7864 166.084 32.5639C165.246 32.3364 164.442 32.005 163.688 31.5699C163.195 31.288 162.741 30.9369 162.337 30.5363C161.933 30.1308 161.583 29.6808 161.297 29.1863C161.011 28.6918 160.789 28.1626 160.641 27.6137C160.493 27.0599 160.414 26.4912 160.414 25.9225V21.6103C160.414 21.0416 160.493 20.4729 160.636 19.924C160.784 19.3751 161.006 18.8459 161.287 18.3514C161.573 17.8569 161.918 17.4069 162.317 17.0014C162.722 16.5959 163.17 16.2497 163.663 15.9629H163.688C164.442 15.5277 165.246 15.1964 166.084 14.9739C166.922 14.7464 167.785 14.6327 168.653 14.6327C169.526 14.6327 170.388 14.7464 171.227 14.9739C172.065 15.1964 172.868 15.5277 173.623 15.9629H173.647ZM172.824 21.6103C172.824 21.3977 172.794 21.185 172.74 20.9823C172.686 20.7746 172.607 20.5768 172.499 20.3938C172.395 20.2108 172.262 20.0427 172.114 19.8894C171.961 19.741 171.794 19.6075 171.611 19.5037H171.586C171.143 19.2465 170.669 19.0487 170.171 18.9152C169.678 18.7866 169.166 18.7174 168.653 18.7174C168.145 18.7174 167.632 18.7866 167.139 18.9152C166.641 19.0487 166.168 19.2465 165.724 19.5037H165.7C165.517 19.6124 165.35 19.741 165.197 19.8894C165.049 20.0427 164.921 20.2108 164.812 20.3938C164.709 20.5768 164.625 20.7746 164.571 20.9823C164.516 21.185 164.487 21.3977 164.487 21.6103V25.9175C164.487 26.1302 164.516 26.3428 164.571 26.5456C164.63 26.7533 164.709 26.9511 164.817 27.1341C164.921 27.317 165.049 27.4901 165.202 27.6385C165.35 27.7918 165.517 27.9203 165.7 28.0291H165.724C166.168 28.2863 166.641 28.4841 167.139 28.6176C167.632 28.7462 168.145 28.8154 168.653 28.8154C169.166 28.8154 169.678 28.7462 170.171 28.6176C170.669 28.4841 171.143 28.2863 171.586 28.0291H171.611C171.794 27.9253 171.961 27.7918 172.114 27.6434C172.262 27.4901 172.395 27.322 172.499 27.139C172.607 26.956 172.686 26.7582 172.74 26.5505C172.794 26.3478 172.824 26.1351 172.824 25.9225V21.6103Z" fill="white"/>
<path fill-rule="evenodd" clip-rule="evenodd" d="M63.8778 8.30285C64.4004 8.60945 64.8836 8.98033 65.3076 9.41056C65.7365 9.83585 66.1014 10.3205 66.407 10.8496C66.7078 11.3738 66.9395 11.9326 67.0973 12.5211C67.2551 13.1046 67.3339 13.7079 67.3339 14.3162V19.1773C67.3339 19.7855 67.2551 20.3888 67.0973 20.9724C66.9395 21.5608 66.7078 22.1197 66.407 22.6488C66.1063 23.173 65.7365 23.6576 65.3125 24.0878C64.8836 24.5181 64.4053 24.889 63.8827 25.1956L63.6017 25.3538C62.8473 25.7939 62.0387 26.1351 61.1956 26.3676C60.3525 26.6 59.4848 26.7286 58.6121 26.7384C57.7395 26.7533 56.8668 26.6593 56.0188 26.4516C55.1658 26.2439 54.3474 25.9324 53.5782 25.517V32.5194H49.5107V14.3162C49.5107 13.7079 49.5896 13.1046 49.7473 12.5211C49.9051 11.9375 50.1368 11.3738 50.4376 10.8496C50.7383 10.3205 51.1081 9.84079 51.5321 9.41056C51.9611 8.98033 52.4393 8.60945 52.9619 8.30285L53.243 8.13965C54.0269 7.6847 54.8651 7.33854 55.7427 7.10611C56.6153 6.86875 57.5176 6.75006 58.4198 6.75006C59.3221 6.75006 60.2244 6.86875 61.097 7.10611C61.9746 7.33854 62.8128 7.6847 63.5967 8.13965L63.8778 8.30285ZM63.2713 14.3162C63.2713 14.0689 63.2368 13.8167 63.1727 13.5793C63.1086 13.337 63.01 13.1046 62.8868 12.887C62.7586 12.6744 62.6057 12.4716 62.4332 12.2985C62.2557 12.1205 62.0585 11.9672 61.8415 11.8436L61.5605 11.6804C61.0872 11.4084 60.5744 11.1958 60.0469 11.0524C59.5144 10.909 58.9671 10.8397 58.4198 10.8397C57.8726 10.8397 57.3253 10.909 56.7928 11.0524C56.2653 11.1958 55.7525 11.4084 55.2792 11.6804L54.9982 11.8436C54.7812 11.9672 54.584 12.1205 54.4065 12.2985C54.234 12.4716 54.0811 12.6744 53.9529 12.887C53.8297 13.1046 53.7311 13.337 53.667 13.5793C53.6029 13.8167 53.5684 14.0689 53.5684 14.3162V19.1822C53.5684 19.4295 53.6029 19.6817 53.667 19.9191C53.7311 20.1614 53.8297 20.3938 53.9529 20.6114C54.0811 20.824 54.234 21.0268 54.4065 21.1999C54.584 21.3779 54.7812 21.5312 54.9982 21.6548L55.2792 21.818C55.7575 22.0949 56.2653 22.3026 56.7978 22.446C57.3253 22.5894 57.8726 22.6587 58.4248 22.6587C58.972 22.6587 59.5193 22.5894 60.0469 22.446C60.5793 22.3026 61.0872 22.0949 61.5654 21.818L61.8415 21.6548C62.0585 21.5312 62.2557 21.3779 62.4332 21.1999C62.6057 21.0268 62.7586 20.824 62.8868 20.6114C63.01 20.3938 63.1086 20.1614 63.1727 19.9191C63.2368 19.6817 63.2713 19.4295 63.2713 19.1822V14.3162Z" fill="white"/>
<path d="M150.11 14.9294C149.489 15.2904 148.912 15.7354 148.404 16.2448C147.896 16.7541 147.457 17.3327 147.097 17.9558C146.737 18.5789 146.461 19.2515 146.274 19.9487C146.087 20.646 145.988 21.363 145.988 22.085V32.4402H150.061V22.085C150.065 21.3531 150.258 20.6361 150.623 20.0031C150.987 19.3751 151.51 18.8459 152.141 18.48C152.772 18.1141 153.487 17.9212 154.217 17.9212C154.942 17.9163 155.661 18.1042 156.292 18.4652L157.461 19.1427L159.492 15.6019L158.329 14.9294C157.708 14.5684 157.042 14.2964 156.347 14.1085C155.652 13.9255 154.937 13.8315 154.217 13.8315C153.502 13.8315 152.787 13.9255 152.092 14.1085C151.397 14.2964 150.731 14.5684 150.11 14.9294Z" fill="white"/>
<path d="M93.7706 27.6385V6.5473H89.703V27.6385C89.703 28.2813 89.8312 28.9193 90.0777 29.5127C90.3242 30.1061 90.6841 30.6501 91.1328 31.105C91.5864 31.56 92.1287 31.921 92.7204 32.1682C93.312 32.4155 93.948 32.5441 94.589 32.5441H95.649V28.4594H94.5742C94.4657 28.4594 94.3622 28.4346 94.2636 28.3951C94.1699 28.3506 94.0812 28.2912 94.0072 28.2121C93.9283 28.1379 93.8692 28.0489 93.8297 27.95C93.7903 27.8511 93.7706 27.7472 93.7706 27.6385Z" fill="white"/>
<path d="M99.0312 14.1382H103.104V32.6628H99.0312V14.1382Z" fill="white"/>
<path fill-rule="evenodd" clip-rule="evenodd" d="M138.321 6.68576H142.394V21.1158H142.364C142.394 21.2938 142.394 21.4471 142.394 21.6103V25.9175C142.394 26.4862 142.32 27.0549 142.172 27.6038C142.024 28.1527 141.802 28.6819 141.521 29.1764C141.235 29.6709 140.89 30.1259 140.491 30.5264C140.086 30.9319 139.638 31.2781 139.145 31.5649C138.39 32.0001 137.587 32.3314 136.749 32.554C135.905 32.7814 135.043 32.8952 134.175 32.8952C133.307 32.8952 132.444 32.7814 131.601 32.554C130.763 32.3314 129.959 32.0001 129.205 31.5649H129.175C128.687 31.2781 128.239 30.927 127.839 30.5215C127.44 30.116 127.095 29.661 126.814 29.1715C126.533 28.6769 126.316 28.1478 126.173 27.5989C126.03 27.05 125.956 26.4813 125.956 25.9126V21.6004C125.956 21.0317 126.035 20.463 126.183 19.9141C126.326 19.3652 126.548 18.836 126.834 18.3415C127.115 17.847 127.465 17.3921 127.864 16.9915C128.268 16.586 128.717 16.2398 129.21 15.953C129.9 15.5574 130.63 15.2459 131.394 15.0233C132.153 14.8008 132.942 14.6722 133.731 14.6376C134.525 14.603 135.319 14.6673 136.098 14.8206C136.877 14.9739 137.631 15.2211 138.351 15.5574L138.321 6.68576ZM138.356 21.6053C138.356 21.3927 138.326 21.1801 138.272 20.9773C138.218 20.7696 138.139 20.5718 138.03 20.3888C137.927 20.2059 137.794 20.0377 137.646 19.8844C137.493 19.7361 137.325 19.6025 137.143 19.4987H137.113C136.67 19.2416 136.196 19.0487 135.698 18.9152C135.205 18.7816 134.697 18.7124 134.185 18.7124C133.672 18.7124 133.164 18.7816 132.671 18.9152C132.173 19.0487 131.7 19.2416 131.256 19.4987C131.074 19.6075 130.906 19.7361 130.753 19.8894C130.605 20.0377 130.472 20.2059 130.369 20.3938C130.26 20.5767 130.176 20.7746 130.122 20.9773C130.063 21.185 130.033 21.3976 130.033 21.6103V25.9423C130.033 26.1549 130.063 26.3675 130.122 26.5703C130.176 26.778 130.26 26.9758 130.364 27.1588C130.472 27.3417 130.6 27.5148 130.748 27.6632C130.901 27.8165 131.069 27.9451 131.251 28.0538H131.281C131.724 28.311 132.198 28.5039 132.691 28.6374C133.189 28.7709 133.697 28.8401 134.204 28.8401C134.717 28.8401 135.225 28.7709 135.723 28.6374C136.216 28.5039 136.689 28.311 137.133 28.0538C137.316 27.9451 137.488 27.8165 137.636 27.6681C137.789 27.5148 137.917 27.3467 138.025 27.1637C138.129 26.9758 138.213 26.778 138.267 26.5752C138.321 26.3675 138.351 26.1549 138.351 25.9423L138.356 21.6053Z" fill="white"/>
<path d="M101.156 6.5473C100.215 6.5473 99.3912 7.18028 99.1447 8.0902C98.8981 9.00505 99.2975 9.96936 100.111 10.4392C100.929 10.9139 101.96 10.7804 102.625 10.1078C103.291 9.44023 103.429 8.40669 102.956 7.59073C102.867 7.43249 102.754 7.28908 102.625 7.1605C102.497 7.03193 102.354 6.91819 102.197 6.82918C102.039 6.73522 101.871 6.66599 101.694 6.61653C101.521 6.57203 101.339 6.5473 101.156 6.5473Z" fill="white"/>
</g>
<defs>
<clipPath id="clip0_25_210">
<rect width="177" height="55" fill="white"/>
</clipPath>
</defs>
</svg>
