<svg width="215" height="162" viewBox="0 0 215 162" fill="none" xmlns="http://www.w3.org/2000/svg">
<path d="M133.169 -44.2172L133.42 -44.0707C123.349 -28.9821 111.292 -8.78881 110.275 11.5144C109.766 21.6567 112.014 31.823 118.641 41.3975C125.27 50.9743 136.296 59.9804 153.379 67.7764C196.849 87.6145 231.667 79.5427 257.645 75.6078C270.612 73.6437 281.455 72.6945 290.026 76.8755C298.62 81.0679 304.843 90.3669 308.733 108.656L308.443 108.707L308.153 108.758C304.273 90.5167 298.102 81.4345 289.756 77.3626C281.387 73.2797 270.74 74.182 257.744 76.1504C231.796 80.0808 196.788 88.1967 153.122 68.2691C135.968 60.4407 124.847 51.3757 118.144 41.6928C111.44 32.0075 109.17 21.7234 109.683 11.4837C110.708 -8.97707 122.848 -29.2796 132.918 -44.3649L133.169 -44.2172ZM157.961 -155.735L158.212 -155.589C148.141 -140.5 136.084 -120.307 135.067 -100.004C134.774 -94.1573 135.398 -88.3034 137.247 -82.5591C138.367 -102.926 150.442 -123.114 160.466 -138.132L160.717 -137.984L160.969 -137.838C150.898 -122.749 138.84 -102.556 137.823 -82.2522C137.802 -81.8374 137.788 -81.4225 137.776 -81.0077C138.447 -79.1555 139.249 -77.3155 140.193 -75.4925C143.86 -92.3165 153.65 -108.439 162.011 -120.966L162.261 -120.818L162.513 -120.671C154.033 -107.966 144.145 -91.6412 140.625 -74.6791C141.457 -73.1466 142.391 -71.6262 143.433 -70.1206C143.445 -70.1037 143.457 -70.087 143.468 -70.0702C148.144 -82.8552 155.541 -94.826 162.068 -104.605L162.318 -104.458L162.57 -104.312C155.972 -94.4264 148.522 -82.3493 143.882 -69.4863C144.713 -68.3231 145.61 -67.1691 146.576 -66.0244C150.768 -74.5543 155.765 -82.4836 160.338 -89.3351L160.589 -89.188L160.84 -89.0409C156.221 -82.1201 151.187 -74.1243 146.989 -65.5376C147.603 -64.8253 148.245 -64.1175 148.914 -63.4132C151.457 -67.7029 154.073 -71.7498 156.562 -75.4784L156.812 -75.3313L157.064 -75.1855C154.544 -71.4091 151.897 -67.3133 149.332 -62.9757C149.541 -62.7602 149.753 -62.5457 149.967 -62.3309C150.188 -62.6634 150.407 -62.9935 150.625 -63.3211L150.877 -63.1733L151.129 -63.0275C150.883 -62.6595 150.636 -62.288 150.388 -61.914C157.001 -55.4011 166.064 -49.2666 178.171 -43.7416C221.641 -23.9035 256.46 -31.976 282.438 -35.9108C295.405 -37.8749 306.247 -38.8235 314.818 -34.6426C323.412 -30.4502 329.635 -21.1512 333.525 -2.86163L333.235 -2.81105L332.945 -2.76038C329.065 -21.0013 322.894 -30.0835 314.548 -34.1555C306.179 -38.2384 295.532 -37.336 282.536 -35.3676C256.588 -31.4372 221.58 -23.3214 177.914 -43.249C165.822 -48.7673 156.73 -54.9015 150.068 -61.432C148.471 -59.0138 146.838 -56.4738 145.216 -53.8328C145.53 -53.3439 145.853 -52.855 146.19 -52.3691C152.819 -42.7924 163.844 -33.7868 180.926 -25.9909C224.397 -6.1527 259.216 -14.2253 285.194 -18.1601C298.161 -20.1242 309.004 -21.0729 317.575 -16.8918C326.169 -12.6993 332.391 -3.40034 336.281 14.8891L335.991 14.9391L335.701 14.9904C331.821 -3.25033 325.652 -12.3327 317.305 -16.4046C308.936 -20.4877 298.289 -19.5852 285.293 -17.6168C259.345 -13.6864 224.337 -5.56982 180.67 -25.4975C163.517 -33.3259 152.396 -42.3915 145.694 -52.0744C145.415 -52.477 145.145 -52.8815 144.882 -53.2861C143.759 -51.446 142.643 -49.5583 141.552 -47.628C142.911 -43.4117 144.93 -39.2543 147.734 -35.2032C154.363 -25.6264 165.389 -16.6208 182.471 -8.8249C225.942 11.0133 260.76 2.94071 286.738 -0.99411C299.705 -2.95818 310.548 -3.90619 319.119 0.274838C327.713 4.46726 333.935 13.7657 337.826 32.0551L337.535 32.1057L337.246 32.1563C333.365 13.9156 327.196 4.83387 318.849 0.761948C310.48 -3.32101 299.833 -2.41859 286.837 -0.450194C260.889 3.48018 225.881 11.596 182.215 -8.33155C165.061 -16.1599 153.94 -25.2249 147.237 -34.9078C144.522 -38.8316 142.533 -42.8535 141.162 -46.9309C140.925 -46.5059 140.688 -46.0795 140.453 -45.6507C140.103 -44.8242 139.763 -43.9933 139.433 -43.1588C139.886 -34.8824 142.376 -26.6653 147.791 -18.843C154.42 -9.26616 165.445 -0.260072 182.528 7.53594C225.999 27.3742 260.817 19.3016 286.795 15.3667C299.763 13.4026 310.606 12.4539 319.177 16.6351C327.771 20.8276 333.992 30.1266 337.883 48.4159L337.593 48.4659L337.303 48.5172C333.423 30.2766 327.253 21.1942 318.907 17.1222C310.538 13.0392 299.891 13.9417 286.895 15.91C260.947 19.8404 225.939 27.957 182.272 8.02929C165.119 0.200916 153.998 -8.86466 147.295 -18.5476C142.098 -26.0567 139.565 -33.9252 138.928 -41.8543C138.788 -41.4848 138.651 -41.1144 138.516 -40.7435C138.099 -38.3215 137.817 -35.8895 137.695 -33.4557C137.187 -23.3134 139.434 -13.1472 146.062 -3.57271C152.691 6.00413 163.716 15.0103 180.799 22.8063C224.27 42.6444 259.088 34.5718 285.066 30.6371C298.033 28.673 308.876 27.7243 317.446 31.9053C326.04 36.0977 332.263 45.3967 336.154 63.6863L335.862 63.7361L335.573 63.7868C331.693 45.5462 325.523 36.4643 317.177 32.3924C308.807 28.3095 298.16 29.2119 285.165 31.1803C259.216 35.1106 224.209 43.2265 180.543 23.2989C163.389 15.4706 152.267 6.40555 145.565 -3.27738C138.861 -12.9627 136.59 -23.2467 137.103 -33.4865C137.175 -34.9064 137.301 -36.3254 137.475 -37.7421C135.528 -31.795 134.224 -25.7024 133.918 -19.5998C133.41 -9.45747 135.657 0.708772 142.285 10.2833C148.914 19.8602 159.939 28.8662 177.022 36.6622C220.493 56.5006 255.312 48.4272 281.29 44.4924C294.257 42.5284 305.1 41.5802 313.671 45.7614C322.265 49.9539 328.486 59.253 332.377 77.5422L332.087 77.5922L331.797 77.6435C327.917 59.4025 321.747 50.3197 313.4 46.2478C305.031 42.1649 294.385 43.068 281.389 45.0363C255.441 48.9667 220.433 57.0832 176.766 37.1556C159.613 29.3273 148.492 20.2616 141.789 10.5787C135.085 0.893286 132.815 -9.39056 133.328 -19.6304C133.687 -26.7877 135.405 -33.9255 137.919 -40.8274C132.651 -30.3331 128.557 -18.9051 127.982 -7.44172C127.474 2.70057 129.722 12.8668 136.349 22.4413C142.978 32.0182 154.004 41.0243 171.087 48.8203C214.557 68.6585 249.376 60.5859 275.354 56.6511C288.321 54.687 299.164 53.7376 307.735 57.9187C316.328 62.1111 322.551 71.4107 326.441 89.7003L326.151 89.7502L325.861 89.8015C321.981 71.5606 315.811 62.4777 307.465 58.4058C299.095 54.3228 288.448 55.2259 275.452 57.1943C249.504 61.1247 214.496 69.2405 170.83 49.3129C153.676 41.4846 142.555 32.4189 135.853 22.736C129.149 13.0507 126.878 2.76725 127.391 -7.47245C128.003 -19.6941 132.582 -31.8589 138.316 -42.8893C138.458 -43.5879 138.61 -44.2854 138.774 -44.9815C138.767 -45.3091 138.764 -45.6368 138.764 -45.9644C129.865 -31.8616 120.866 -14.5241 119.993 2.89451C119.485 13.0368 121.732 23.203 128.36 32.7775C134.989 42.3544 146.015 51.3605 163.097 59.1565C206.568 78.9946 241.386 70.9227 267.364 66.9879C280.331 65.0238 291.175 64.0738 299.745 68.2549C308.339 72.4474 314.562 81.747 318.452 100.037L318.162 100.086L317.872 100.138C313.992 81.8968 307.822 72.814 299.476 68.742C291.106 64.659 280.459 65.5621 267.463 67.5305C241.514 71.4609 206.507 79.5767 162.841 59.6491C145.687 51.8208 134.566 42.7558 127.863 33.0729C121.159 23.3875 118.888 13.1035 119.402 2.86378C120.298 -15.0303 129.696 -32.8031 138.775 -47.0711C138.786 -47.6328 138.805 -48.1945 138.833 -48.7561C138.924 -50.5734 139.104 -52.3897 139.362 -54.201C138.765 -57.826 138.594 -61.4741 138.776 -65.1169C138.8 -65.5988 138.832 -66.0804 138.868 -66.562C137.563 -71.3105 137.057 -76.1215 137.181 -80.9295C134.922 -87.2102 134.154 -93.631 134.475 -100.034C135.5 -120.495 147.64 -140.798 157.71 -155.883L157.961 -155.735ZM122.149 -37.0139L122.4 -36.8675C112.329 -21.7788 100.273 -1.58495 99.2553 18.7184C98.7471 28.8605 100.994 39.0263 107.621 48.6007C114.25 58.1776 125.276 67.1836 142.359 74.9797C185.829 94.8179 220.648 86.7453 246.626 82.8104C259.593 80.8464 270.436 79.8982 279.007 84.0794C287.6 88.2718 293.823 97.5702 297.713 115.86L297.423 115.91L297.133 115.961C293.253 97.7202 287.083 88.6385 278.737 84.5665C270.367 80.4835 259.72 81.386 246.725 83.3544C220.776 87.2847 185.769 95.4007 142.103 75.473C124.949 67.6446 113.828 58.5797 107.125 48.8967C100.421 39.2114 98.1505 28.9274 98.6636 18.6876C99.6889 -1.77322 111.829 -22.0756 121.898 -37.161L122.149 -37.0139ZM110.247 -30.8393L110.499 -30.6922C100.427 -15.6035 88.371 4.58966 87.3535 24.893C86.8453 35.0353 89.0919 45.2021 95.7192 54.7766C102.348 64.3533 113.374 73.3583 130.457 81.1543C173.928 100.993 208.746 92.9198 234.724 88.985C247.691 87.021 258.534 86.0729 267.105 90.254C275.699 94.4464 281.921 103.745 285.812 122.034L285.521 122.085L285.231 122.136C281.35 103.895 275.181 94.813 266.835 90.7411C258.465 86.6581 247.819 87.5605 234.823 89.529C208.875 93.4593 173.867 101.575 130.201 81.6476C113.047 73.8192 101.926 64.7543 95.2232 55.0713C88.5191 45.386 86.2487 35.102 86.7618 24.8622C87.7872 4.40164 99.9267 -15.9005 109.996 -30.9858L110.247 -30.8393ZM97.82 -25.3079L98.0712 -25.1615C87.9999 -10.0729 75.9434 10.1204 74.9259 30.4237C74.4177 40.566 76.6642 50.7328 83.2916 60.3073C89.9207 69.8841 100.947 78.8897 118.03 86.6857C161.5 106.524 196.319 98.4512 222.297 94.5165C235.264 92.5524 246.107 91.6037 254.677 95.7847C263.271 99.9771 269.494 109.276 273.385 127.566L273.094 127.616L272.804 127.668C268.923 109.427 262.754 100.344 254.407 96.2718C246.038 92.1888 235.391 93.0913 222.395 95.0597C196.447 98.99 161.44 107.106 117.773 87.1783C100.62 79.3499 89.4981 70.285 82.7956 60.602C76.0915 50.9167 73.821 40.6327 74.3341 30.3929C75.3596 9.93235 87.499 -10.3698 97.5681 -25.4551L97.82 -25.3079ZM85.1398 -20.0932L85.3917 -19.9473C75.3203 -4.85863 63.2637 15.3358 62.2463 35.6391C61.7382 45.7812 63.9849 55.9471 70.6121 65.5215C77.2412 75.0983 88.2668 84.1044 105.35 91.9004C148.82 111.739 183.639 103.666 209.617 99.7312C222.584 97.7671 233.428 96.8184 241.998 101C250.592 105.192 256.814 114.491 260.704 132.78L260.414 132.83L260.124 132.882C256.244 114.641 250.075 105.559 241.728 101.487C233.359 97.4037 222.712 98.3062 209.717 100.275C183.768 104.205 148.76 112.321 105.094 92.3938C87.9399 84.5654 76.8193 75.4998 70.1167 65.8169C63.4126 56.1316 61.1415 45.8482 61.6545 35.6084C62.6798 15.1476 74.8201 -5.15481 84.8893 -20.2402L85.1398 -20.0932ZM72.672 -14.7859C62.6006 0.302737 50.5448 20.4966 49.5273 40.7999C49.0191 50.9421 51.2651 61.1084 57.8924 70.6828C64.5215 80.2598 75.5478 89.2652 92.6307 97.0612C136.101 116.9 170.92 108.827 196.898 104.892C209.865 102.928 220.708 101.98 229.279 106.161C237.872 110.353 244.095 119.652 247.985 137.941L247.695 137.992L247.405 138.043C243.524 119.802 237.355 110.72 229.009 106.648C220.639 102.565 209.992 103.468 196.997 105.436C171.048 109.366 136.041 117.482 92.3748 97.5546C75.2209 89.7262 64.0996 80.6612 57.397 70.9783C50.6929 61.2929 48.4225 51.009 48.9356 40.7692C49.9609 20.3086 62.1005 0.00651744 72.1696 -15.0788L72.672 -14.7859ZM59.8133 -9.62598L60.0644 -9.47953C49.9931 5.60904 37.9367 25.8024 36.9191 46.1056C36.4109 56.2479 38.6575 66.4148 45.2848 75.9892C51.914 85.5661 62.9403 94.5716 80.0232 102.368C123.494 122.206 158.312 114.133 184.29 110.198C197.257 108.234 208.1 107.286 216.671 111.467C225.265 115.66 231.487 124.958 235.378 143.248L235.087 143.298L234.797 143.349C230.917 125.109 224.747 116.026 216.401 111.954C208.031 107.871 197.385 108.774 184.389 110.742C158.441 114.673 123.433 122.788 79.7672 102.861C62.6135 95.0327 51.4921 85.9675 44.7895 76.2847C38.0853 66.5993 35.815 56.3154 36.328 46.0756C37.3533 25.6148 49.4922 5.31227 59.5614 -9.77314L59.8133 -9.62598ZM47.4365 -4.03113L47.6877 -3.88468C37.6163 11.204 25.5605 31.3978 24.543 51.7012C24.0348 61.8434 26.2808 72.0097 32.9081 81.5841C39.5372 91.161 50.5635 100.166 67.6464 107.962C111.117 127.801 145.935 119.728 171.913 115.793C184.881 113.829 195.724 112.881 204.294 117.062C212.888 121.255 219.111 130.553 223.001 148.842L222.71 148.893L222.42 148.944C218.54 130.704 212.371 121.621 204.024 117.549C195.655 113.466 185.008 114.369 172.013 116.337C146.064 120.268 111.057 128.383 67.3905 108.456C50.2366 100.627 39.1153 91.5625 32.4127 81.8795C25.7085 72.1941 23.4382 61.9103 23.9513 51.6704C24.9766 31.2096 37.1168 10.9072 47.1861 -4.1782L47.4365 -4.03113ZM35.3763 1.952L35.6289 2.09854C25.5575 17.1872 13.5002 37.3809 12.4828 57.6843C11.9746 67.8265 14.222 77.9929 20.8493 87.5673C27.4784 97.144 38.5037 106.15 55.5862 113.946C99.0566 133.784 133.875 125.711 159.853 121.776C172.821 119.812 183.664 118.864 192.235 123.045C200.829 127.237 207.05 136.536 210.941 154.826L210.651 154.876L210.361 154.927C206.48 136.686 200.311 127.604 191.965 123.532C183.596 119.449 172.949 120.351 159.953 122.32C134.005 126.25 98.9967 134.367 55.3302 114.439C38.1765 106.611 27.0558 97.5449 20.3533 87.862C13.6492 78.1767 11.378 67.8933 11.891 57.6536C12.9164 37.1928 25.0566 16.8903 35.1258 1.80493L35.3763 1.952ZM23.6934 8.38817L23.9453 8.53533C13.8739 23.624 1.81739 43.8172 0.799945 64.1205C0.291742 74.2628 2.53906 84.429 9.16642 94.0035C15.7956 103.58 26.8212 112.587 43.904 120.382C87.3745 140.221 122.193 132.148 148.171 128.213C161.138 126.249 171.981 125.3 180.551 129.481C189.145 133.674 195.367 142.972 199.258 161.262L198.967 161.312L198.678 161.363C194.798 143.122 188.628 134.041 180.281 129.969C171.912 125.886 161.265 126.788 148.269 128.756C122.321 132.687 87.3137 140.803 43.6474 120.875C26.4937 113.047 15.3722 103.982 8.66965 94.2988C1.96556 84.6135 -0.304886 74.3295 0.208197 64.0897C1.23355 43.6289 13.3738 23.3265 23.443 8.2411L23.6934 8.38817ZM140.579 -48.801C140.465 -48.6258 140.35 -48.4507 140.236 -48.2743C139.921 -47.1596 139.63 -46.0408 139.366 -44.9186C139.367 -44.9032 139.367 -44.8878 139.367 -44.8724C139.548 -45.2092 139.73 -45.5452 139.913 -45.8797C140.211 -46.5815 140.514 -47.2806 140.825 -47.9759C140.74 -48.2507 140.658 -48.5258 140.579 -48.801ZM142.819 -52.2107C142.22 -51.3103 141.614 -50.3925 141.005 -49.4577C141.066 -49.2354 141.129 -49.013 141.194 -48.7909C141.718 -49.9412 142.263 -51.0805 142.819 -52.2107ZM139.716 -52.2951C139.583 -51.1064 139.485 -49.9159 139.425 -48.7254C139.414 -48.497 139.405 -48.2686 139.396 -48.0402C139.493 -48.1911 139.589 -48.3419 139.686 -48.4919C139.849 -49.0686 140.019 -49.6444 140.195 -50.2186C140.019 -50.9096 139.859 -51.6018 139.716 -52.2951ZM144.395 -54.046C143.959 -53.1938 143.529 -52.3353 143.108 -51.4706C143.58 -52.2654 144.055 -53.0518 144.531 -53.8292C144.485 -53.9013 144.441 -53.9739 144.395 -54.046ZM142.986 -56.4444C142.191 -54.3932 141.461 -52.3199 140.814 -50.2297C141.427 -51.1659 142.036 -52.0847 142.636 -52.9849L142.887 -52.8371L143.074 -52.7282C143.391 -53.3654 143.711 -53.9997 144.036 -54.6299C143.67 -55.2326 143.32 -55.8377 142.986 -56.4444ZM149.035 -62.4662C147.549 -59.9356 146.09 -57.3254 144.703 -54.6492C144.758 -54.5597 144.813 -54.4698 144.869 -54.3803C146.468 -56.9764 148.076 -59.4717 149.645 -61.8464C149.439 -62.0523 149.237 -62.2596 149.035 -62.4662ZM141.109 -60.2457C140.636 -58.2403 140.249 -56.2242 139.959 -54.2027C140.12 -53.2345 140.312 -52.2685 140.536 -51.3045C141.165 -53.2618 141.864 -55.2035 142.621 -57.1244C142.072 -58.16 141.568 -59.2001 141.109 -60.2457ZM146.715 -64.9818C145.477 -62.4187 144.315 -59.8041 143.263 -57.1507C143.607 -56.5087 143.969 -55.8689 144.349 -55.2314C145.719 -57.8578 147.153 -60.4198 148.614 -62.9019C147.955 -63.591 147.323 -64.2846 146.715 -64.9818ZM143.647 -68.8262C142.759 -66.307 141.98 -63.7589 141.339 -61.1919C141.81 -60.0669 142.329 -58.9466 142.903 -57.833C143.943 -60.4192 145.086 -62.9663 146.299 -65.4634C145.352 -66.5748 144.469 -67.6962 143.647 -68.8262ZM139.359 -64.8972C139.223 -61.9884 139.316 -59.0781 139.674 -56.1805C139.962 -57.8448 140.313 -59.5042 140.721 -61.1554C140.207 -62.3968 139.755 -63.6446 139.359 -64.8972ZM140.448 -73.8024C139.984 -71.412 139.651 -69.0099 139.466 -66.6046C139.883 -65.1008 140.381 -63.6039 140.965 -62.1155C141.606 -64.569 142.369 -67.0035 143.23 -69.4103C143.132 -69.5489 143.032 -69.6865 142.936 -69.8253C142.026 -71.1402 141.199 -72.467 140.448 -73.8024ZM137.754 -79.427C137.761 -75.7087 138.159 -71.9952 139.027 -68.3163C139.248 -70.4191 139.579 -72.5174 140.007 -74.6057C139.149 -76.2008 138.401 -77.8088 137.754 -79.427Z" fill="url(#paint0_radial_21_14)" fill-opacity="0.58"/>
<defs>
<radialGradient id="paint0_radial_21_14" cx="0" cy="0" r="1" gradientTransform="matrix(130.345 85.6603 -95.3392 125.988 146.375 44.4074)" gradientUnits="userSpaceOnUse">
<stop stop-color="white"/>
<stop offset="1" stop-color="#1E1E1E" stop-opacity="0"/>
<stop offset="1" stop-color="#0E0E35" stop-opacity="0"/>
<stop offset="1" stop-color="white" stop-opacity="0"/>
</radialGradient>
</defs>
</svg>
